<?xml version="1.0" standalone="no"?>
<!DOCTYPE svg PUBLIC "-//W3C//DTD SVG 1.1//EN" "http://www.w3.org/Graphics/SVG/1.1/DTD/svg11.dtd" >
<!--
2013-9-30: Created.
-->
<svg>
<metadata>
Created by iconfont
</metadata>
<defs>

<font id="iconfont" horiz-adv-x="1024" >
  <font-face
    font-family="iconfont"
    font-weight="500"
    font-stretch="normal"
    units-per-em="1024"
    ascent="896"
    descent="-128"
  />
    <missing-glyph />
    
    <glyph glyph-name="x" unicode="x" horiz-adv-x="1001"
d="M281 543q-27 -1 -53 -1h-83q-18 0 -36.5 -6t-32.5 -18.5t-23 -32t-9 -45.5v-76h912v41q0 16 -0.5 30t-0.5 18q0 13 -5 29t-17 29.5t-31.5 22.5t-49.5 9h-133v-97h-438v97zM955 310v-52q0 -23 0.5 -52t0.5 -58t-10.5 -47.5t-26 -30t-33 -16t-31.5 -4.5q-14 -1 -29.5 -0.5
t-29.5 0.5h-32l-45 128h-439l-44 -128h-29h-34q-20 0 -45 1q-25 0 -41 9.5t-25.5 23t-13.5 29.5t-4 30v167h911zM163 247q-12 0 -21 -8.5t-9 -21.5t9 -21.5t21 -8.5q13 0 22 8.5t9 21.5t-9 21.5t-22 8.5zM316 123q-8 -26 -14 -48q-5 -19 -10.5 -37t-7.5 -25t-3 -15t1 -14.5
t9.5 -10.5t21.5 -4h37h67h81h80h64h36q23 0 34 12t2 38q-5 13 -9.5 30.5t-9.5 34.5q-5 19 -11 39h-368zM336 498v228q0 11 2.5 23t10 21.5t20.5 15.5t34 6h188q31 0 51.5 -14.5t20.5 -52.5v-227h-327z" />
    

    
    <glyph glyph-name="circleleft" unicode="&#59756;" d="M512 832C264.6 832 64 631.4 64 384S264.6-64 512-64s448 200.6 448 448S759.4 832 512 832zM632.4 152.70000000000005c-12.5-12.5-32.8-12.5-45.3 0.1L401.2 338.70000000000005l-0.1-0.1-0.2 0.2c-24.9 24.9-24.9 65.3 0 90.3l0.2 0.2 0.1-0.1 185.8 186c12.5 12.5 32.8 12.5 45.3 0s12.5-32.8 0-45.3L469 406.6c-12.5-12.5-12.5-32.8 0-45.3L632.4 198C644.9 185.5 644.9 165.20000000000005 632.4 152.70000000000005z"  horiz-adv-x="1024" />

    
    <glyph glyph-name="circleright" unicode="&#59757;" d="M512 832C264.6 832 64 631.4 64 384S264.6-64 512-64s448 200.6 448 448S759.4 832 512 832zM620.1 338.79999999999995l-0.2-0.2-0.1 0.1L433.9 152.79999999999995c-12.5-12.6-32.8-12.6-45.3-0.1s-12.5 32.8 0 45.3L552 361.29999999999995c12.5 12.5 12.5 32.8 0 45.3L388.7 569.9c-12.5 12.5-12.5 32.8 0 45.3s32.8 12.5 45.3 0l185.8-186 0.1 0.1 0.2-0.2C645 404.1 645 363.70000000000005 620.1 338.79999999999995z"  horiz-adv-x="1024" />

    
    <glyph glyph-name="quanping" unicode="&#58889;" d="M456.425 102.75l-186.4125 0 191.19375 191.19375L421.4375 333.7125l-190.9125-190.9125L231.425 327.75c0 15.525-12.6 28.125-28.125 28.125-15.525 0-28.125-12.6-28.125-28.125l0-253.125c0-8.325 3.43125-15.01875 8.8875-19.6875C189.125 49.762500000000045 196.2125 46.5 204.0875 46.5l252.3375 0c15.525 0 28.125 12.6 28.125 28.125C484.55 90.14999999999998 471.95 102.75 456.425 102.75zM850.175 834l-675 0c-62.1 0-112.5-50.34375-112.5-112.5l0-675c0-62.15625 50.4-112.5 112.5-112.5l675 0c62.15625 0 112.5 50.34375 112.5 112.5L962.675 721.5C962.675 783.65625 912.275 834 850.175 834zM906.425 46.5c0-31.05-25.2-56.25-56.25-56.25l-675 0c-31.05 0-56.25 25.2-56.25 56.25L118.925 721.5c0 31.05 25.2 56.25 56.25 56.25l675 0c31.05 0 56.25-25.2 56.25-56.25L906.425 46.5zM821.2625 721.5L568.925 721.5c-15.525 0-28.125-12.6-28.125-28.125 0-15.525 12.6-28.125 28.125-28.125l186.4125 0L564.14375 474.05625l39.76875-39.76875 190.9125 190.9125L793.925 440.25c0-15.525 12.6-28.125 28.125-28.125s28.125 12.6 28.125 28.125L850.175 693.375c0 8.325-3.43125 15.075-8.8875 19.6875C836.16875 718.2375 829.08125 721.5 821.2625 721.5z"  horiz-adv-x="1025" />

    
    <glyph glyph-name="zanwushuju" unicode="&#58909;" d="M720.896 687.616h-410.624l-246.272-341.504v-189.952c0-41.984 33.28-75.776 74.752-75.776h745.984c40.96 0 74.752 33.792 74.752 75.776v189.952l-238.592 341.504z m14.848-351.744L671.744 240.12800000000004h-320l-64 95.744h-192l223.744 320h383.488l223.744-320h-190.976zM530.944 374.784l-36.864-0.512-7.68 171.008h56.32zM456.704 388.608l-22.528-14.336-66.56 102.912 35.328 20.48zM567.296 388.608l22.528-14.336 67.072 102.912-35.84 20.48z"  horiz-adv-x="1024" />

    
    <glyph glyph-name="morenyingyong" unicode="&#58936;" d="M139.630608 171.99715200000003l369.1029984-213.10310613 0.1910176 424.13449493-368.09224533 213.10092373zM549.92018027 383.0285408l-0.1932-424.13449493 364.70087146 211.94390506 1.20286187 424.13122134zM526.03212053 838.81621653L161.33015787 626.87558613l369.10190613-213.10201493 364.70305493 211.94172267z"  horiz-adv-x="1024" />

    
    <glyph glyph-name="jichuziliao" unicode="&#58899;" d="M64 633.6v-499.2c0-44.8 25.6-70.4 57.6-70.4h774.4c38.4 0 57.6 25.6 57.6 70.4v499.2c0 44.8-25.6 70.4-57.6 70.4h-774.4c-32 0-57.6-25.6-57.6-70.4zM422.4 204.8h-236.8v358.4h236.8v-358.4zM838.4 204.8h-300.8v70.4h300.8v-70.4zM838.4 345.6h-300.8v70.4h300.8v-70.4zM838.4 492.8h-300.8v70.4h300.8v-70.4z"  horiz-adv-x="1024" />

    
    <glyph glyph-name="jituanshouye" unicode="&#58900;" d="M556.8 808.533c-25.6 25.6-64 25.6-89.6 0l-403.2-403.2h128v-448h192v256h262.4v-256h185.6v448h121.6l-396.8 403.2z"  horiz-adv-x="1024" />

    
    <glyph glyph-name="baobiao" unicode="&#58901;" d="M134.4 736h-12.8c-32 0-57.6-25.6-57.6-57.6v-588.8c0-32 25.6-57.6 57.6-57.6h780.8c32 0 57.6 25.6 57.6 57.6s-25.6 57.6-57.6 57.6h-652.8c-32 0-57.6 25.6-57.6 57.6v473.6c0 32-25.6 57.6-57.6 57.6zM320 416h64c38.4 0 64-25.6 64-64v-64c0-38.4-25.6-64-64-64h-64c-38.4 0-64 25.6-64 64v64c0 38.4 25.6 64 64 64z m512 128h64c38.4 0 64-25.6 64-64v-192c0-38.4-25.6-64-64-64h-64c-38.4 0-64 25.6-64 64v192c0 38.4 25.6 64 64 64z m-256 192h64c38.4 0 64-25.6 64-64v-384c0-38.4-25.6-64-64-64h-64c-38.4 0-64 25.6-64 64v384c0 38.4 25.6 64 64 64z"  horiz-adv-x="1024" />

    
    <glyph glyph-name="daoru" unicode="&#58902;" d="M896 281.6v-192c0-89.6-70.4-160-160-160h-473.6c-89.6 0-160 70.4-160 160V576c0 89.6 70.4 160 160 160h76.8v-76.8h-51.2c-57.6 0-108.8-44.8-108.8-108.8v-422.4c0-57.6 44.8-108.8 108.8-108.8h422.4c57.6 0 108.8 44.8 108.8 108.8v160h76.8zM576 300.79999999999995c19.2-19.2 51.2-19.2 70.4 0l224 224c19.2 19.2 12.8 32-12.8 32h-166.4c0 51.2 12.8 224 249.6 262.4-128 44.8-403.2-25.6-422.4-262.4h-147.2c-25.6 0-32-12.8-12.8-32l217.6-224z"  horiz-adv-x="1024" />

    
    <glyph glyph-name="shezhi" unicode="&#58903;" d="M992 448c-6.4 19.2-25.6 44.8-44.8 44.8l-12.8 6.4c-38.4 12.8-70.4 38.4-89.6 70.4-19.2 38.4-25.6 76.8-19.2 115.2l6.4 12.8c6.4 19.2 0 51.2-19.2 64 0 0-12.8 12.8-57.6 38.4-38.4 25.6-57.6 32-57.6 32-19.2 6.4-51.2 0-64-12.8l-12.8-12.8c-25.6-25.6-64-44.8-108.8-44.8-38.4 0-76.8 19.2-108.8 44.8l-12.8 12.8c-12.8 12.8-44.8 25.6-64 12.8 0 0-19.2-6.4-57.6-32l-57.6-38.4c-19.2-12.8-25.6-38.4-19.2-64l6.4-12.8c6.4-38.4 6.4-76.8-19.2-115.2s-51.2-57.6-89.6-70.4l-12.8-6.4c-19.2-6.4-38.4-25.6-44.8-44.8 0 0-6.4-19.2-6.4-64s6.4-64 6.4-64c6.4-19.2 25.6-44.8 44.8-44.8l12.8-6.4c38.4-12.8 70.4-38.4 89.6-70.4 19.2-38.4 25.6-76.8 19.2-115.2l-6.4-12.8c-6.4-19.2 0-51.2 19.2-64 0 0 12.8-12.8 57.6-38.4 38.4-25.6 57.6-32 57.6-32 19.2-6.4 51.2 0 64 12.8l12.8 12.8c25.6 25.6 64 44.8 108.8 44.8s76.8-19.2 108.8-44.8l12.8-12.8c12.8-12.8 44.8-25.6 64-12.8 0 0 19.2 6.4 57.6 32l57.6 38.4c19.2 12.8 25.6 44.8 19.2 64l-6.4 12.8c-6.4 38.4-6.4 76.8 19.2 115.2 19.2 38.4 51.2 57.6 89.6 70.4l12.8 6.4c19.2 6.4 38.4 25.6 44.8 44.8 0 0 6.4 19.2 6.4 64s-6.4 64-6.4 64m-473.6-256c-102.4 0-192 83.2-192 192 0 102.4 83.2 192 192 192 102.4 0 192-83.2 192-192 0-102.4-83.2-192-192-192"  horiz-adv-x="1024" />

    
    <glyph glyph-name="daochu" unicode="&#58904;" d="M896 281.6v-192c0-89.6-70.4-160-160-160h-473.6c-89.6 0-160 70.4-160 160V576c0 89.6 70.4 160 160 160h76.8v-76.8h-51.2c-57.6 0-108.8-44.8-108.8-108.8v-422.4c0-57.6 44.8-108.8 108.8-108.8h422.4c57.6 0 108.8 44.8 108.8 108.8v160h76.8z m-198.4 537.6c-19.2 19.2-51.2 19.2-70.4 0l-224-224c-19.2-19.2-12.8-32 12.8-32h166.4c0-51.2-12.8-224-249.6-262.4 128-44.8 403.2 25.6 422.4 262.4h147.2c25.6 0 32 12.8 12.8 32l-217.6 224z"  horiz-adv-x="1024" />

    
    <glyph glyph-name="fangdajing" unicode="&#58905;" d="M755.2 460.8c6.4-166.4-121.6-313.6-288-320-166.4-6.4-313.6 121.6-320 288-6.4 166.4 121.6 313.6 288 320 166.4 12.8 307.2-121.6 320-288m-44.8 268.8c-76.8 70.4-172.8 102.4-275.2 102.4-102.4-6.4-198.4-51.2-268.8-128s-102.4-172.8-102.4-275.2c6.4-102.4 51.2-198.4 128-268.8s172.8-102.4 275.2-102.4c83.2 6.4 160 32 224 83.2l198.4-198.4c6.4-6.4 19.2-12.8 32-12.8s19.2 6.4 25.6 12.8c6.4 6.4 12.8 19.2 12.8 25.6 0 12.8-6.4 19.2-12.8 25.6l-198.4 198.4c57.6 70.4 89.6 166.4 83.2 262.4-6.4 115.2-44.8 211.2-121.6 275.2"  horiz-adv-x="1024" />

    
    <glyph glyph-name="jiankongkanban" unicode="&#58907;" d="M960 224v448c0 38.4-25.6 64-64 64h-352v64h-64v-64h-352c-38.4 0-64-25.6-64-64v-448c0-38.4 25.6-64 64-64h352v-51.2l-153.6-89.6 32-57.6 147.2 83.2h19.2l147.2-83.2 32 57.6-153.6 89.6v51.2h345.6c38.4 0 64 25.6 64 64zM518.4 288l-160 134.4-121.6-96-38.4 51.2 160 134.4 160-134.4 275.2 236.8 38.4-51.2-313.6-275.2z"  horiz-adv-x="1024" />

    
    <glyph glyph-name="wodeshouye" unicode="&#58908;" d="M972.8 332.8c-57.6-57.6-192-204.8-467.2-204.8-224 0-371.2 134.4-460.8 217.6-19.2 19.2-19.2 64 6.4 83.2 83.2 70.4 224 211.2 454.4 211.2 236.8 0 409.6-166.4 467.2-224 19.2-12.8 25.6-57.6 0-83.2z m-460.8 230.4c-121.6 0-217.6-83.2-217.6-185.6 0-102.4 96-185.6 217.6-185.6s217.6 83.2 217.6 185.6c0 108.8-96 185.6-217.6 185.6z m0-288c-70.4 0-128 51.2-128 108.8 0 57.6 57.6 108.8 128 108.8s128-51.2 128-108.8c6.4-64-57.6-108.8-128-108.8z"  horiz-adv-x="1024" />

    
    <glyph glyph-name="zuzhi" unicode="&#58910;" d="M377.6 601.6c0-96 76.8-172.8 172.8-172.8s172.8 76.8 172.8 172.8-76.8 172.8-172.8 172.8c-89.6 0-172.8-76.8-172.8-172.8z m-256-473.6c0-70.4 57.6-134.4 134.4-134.4s134.4 57.6 134.4 134.4S332.8 262.4 256 262.4s-134.4-57.6-134.4-134.4z m601.6 32c0-51.2 38.4-89.6 89.6-89.6 51.2 0 89.6 38.4 89.6 89.6 0 51.2-38.4 89.6-89.6 89.6-51.2 0-89.6-44.8-89.6-89.6z m89.6 147.2c83.2 0 147.2-64 147.2-147.2s-64-147.2-147.2-147.2-147.2 64-147.2 147.2c0 57.6 32 102.4 76.8 128l-57.6 121.6c-38.4-25.6-83.2-44.8-134.4-44.8-38.4 0-70.4 6.4-102.4 25.6L377.6 275.20000000000005c44.8-32 70.4-89.6 70.4-147.2 0-102.4-83.2-192-192-192-102.4 0-192 83.2-192 192 0 102.4 83.2 192 192 192 25.6 0 51.2-6.4 70.4-12.8l70.4 115.2c-51.2 44.8-83.2 108.8-83.2 179.2 0 128 102.4 236.8 236.8 236.8s236.8-102.4 236.8-236.8c0-57.6-19.2-108.8-51.2-147.2l70.4-147.2h6.4z"  horiz-adv-x="1024" />

    
    <glyph glyph-name="mima" unicode="&#58914;" d="M761.6 499.2h-25.6v108.8c0 128-89.6 230.4-224 230.4s-224-102.4-224-230.4v-108.8h-25.6c-64 0-108.8-51.2-108.8-115.2v-339.2c0-64 51.2-115.2 108.8-115.2h499.2c64 0 108.8 51.2 108.8 115.2V384c6.4 64-44.8 115.2-108.8 115.2z m-416 108.8c0 96 64 172.8 166.4 172.8s166.4-76.8 166.4-172.8v-108.8h-332.8v108.8z m473.6-563.2c0-32-25.6-57.6-57.6-57.6h-499.2c-32 0-57.6 25.6-57.6 57.6V384c0 32 25.6 57.6 57.6 57.6h499.2c32 0 57.6-25.6 57.6-57.6v-339.2zM505.6 332.79999999999995c-32 0-57.6-25.6-57.6-57.6 0-19.2 12.8-38.4 32-51.2v-89.6c0-12.8 12.8-25.6 25.6-25.6s25.6 12.8 25.6 25.6v89.6c19.2 6.4 38.4 32 38.4 51.2 0 32-32 57.6-64 57.6z"  horiz-adv-x="1024" />

    
    <glyph glyph-name="yonghuming" unicode="&#58915;" d="M665.6 332.79999999999995c70.4 51.2 115.2 128 115.2 224 0 153.6-121.6 275.2-268.8 275.2s-262.4-121.6-262.4-275.2c0-96 44.8-172.8 115.2-224-153.6-64-262.4-217.6-262.4-396.8h76.8c0 179.2 134.4 326.4 300.8 352 0 0 44.8 6.4 83.2 0h6.4c166.4-25.6 294.4-172.8 294.4-345.6h76.8c-12.8 172.8-121.6 326.4-275.2 390.4z m-153.6 19.2c-108.8 0-198.4 89.6-198.4 204.8s89.6 204.8 198.4 204.8 198.4-89.6 198.4-204.8-89.6-204.8-198.4-204.8z"  horiz-adv-x="1024" />

    
    <glyph glyph-name="shangpinmingxi" unicode="&#58916;" d="M134.4 691.2v-620.8c0-38.4 32-70.4 70.4-70.4h620.8c38.4 0 70.4 32 70.4 70.4v620.8c0 38.4-32 70.4-70.4 70.4h-620.8c-38.4 0-70.4-32-70.4-70.4z m-70.4 0c0 76.8 64 140.8 140.8 140.8h620.8c76.8 0 140.8-64 140.8-140.8v-620.8c0-76.8-64-140.8-140.8-140.8h-620.8c-76.8 0-140.8 64-140.8 140.8v620.8z m172.8-64c0-147.2 128-236.8 275.2-236.8s275.2 89.6 275.2 236.8c0 19.2-12.8 32-32 32s-32-12.8-32-32c0-102.4-89.6-166.4-204.8-166.4-115.2 0-204.8 64-204.8 166.4 0 19.2-12.8 32-32 32-32 0-44.8-12.8-44.8-32z"  horiz-adv-x="1024" />

    
    <glyph glyph-name="fukuanmingxi" unicode="&#58917;" d="M800-6.4h-640c-51.2 0-96 44.8-96 96v576c0 51.2 44.8 96 96 96h640c51.2 0 96-44.8 96-96v-96c0-19.2-12.8-32-32-32s-32 12.8-32 32v96c0 19.2-12.8 32-32 32h-640c-19.2 0-32-12.8-32-32v-576c0-19.2 12.8-32 32-32h640c19.2 0 32 12.8 32 32V192c0 19.2 12.8 32 32 32s32-12.8 32-32v-96c0-57.6-44.8-102.4-96-102.4zM627.2 384c0-19.2 12.8-32 32-32s32 12.8 32 32-12.8 32-32 32c-12.8 0-32-19.2-32-32zM896 256h-320c-38.4 0-64 25.6-64 64v128c0 38.4 25.6 64 64 64h320c38.4 0 64-25.6 64-64v-128c0-38.4-25.6-64-64-64z m-320 192v-128h320v128h-320z"  horiz-adv-x="1024" />

    
    <glyph glyph-name="guanlian" unicode="&#58937;" d="M740.3225002929687 309.65999999999997c-9.600000292968751 0-19.19999970703125 3.67499970703125-26.5125005859375 10.987499707031251a37.455000292968755 37.455000292968755 0 0 0 0 53.02500029296874l129.375 129.375c58.50000000000001 58.46249970703124 58.50000000000001 153.63749970703125 0 212.13749970703122-58.50000000000001 58.46249970703124-153.63749970703125 58.50000000000001-212.13749970703122 0l-129.375-129.375a37.455000292968755 37.455000292968755 0 0 0-53.02500029296874 0 37.52250029296875 37.52250029296875 0 0 0 0 53.02500029296874l129.375 129.375c87.71249970703124 87.75000000000001 230.47499970703123 87.67500029296875 318.1875002929687 0.037500292968749994 87.71249970703124-87.78750029296873 87.71249970703124-230.5125 0-318.22500058593755l-129.375-129.375a37.394999999999996 37.394999999999996 0 0 0-26.512499707031253-10.987499707031251M286.8949997070313-66c-57.637500292968745 0-115.23750029296875 21.937500000000004-159.11249941406248 65.81249999999999-87.71249970703124 87.75000000000001-87.71249970703124 230.43750029296876 0 318.1875002929687l131.77499941406248 131.7375a37.455000292968755 37.455000292968755 0 0 0 53.02500029296874 0 37.455000292968755 37.455000292968755 0 0 0 0-53.02500029296874L180.80749970703124 264.9749999999999c-58.46249970703124-58.46249970703124-58.46249970703124-153.63749970703125 0-212.13749970703122 58.50000000000001-58.46249970703124 153.63749970703125-58.46249970703124 212.17499999999995 0l131.7375 131.77499941406248a37.52250029296875 37.52250029296875 0 0 0 53.02500029296874 0 37.52250029296875 37.52250029296875 0 0 0 0-53.024999414062506l-131.7375-131.77500029296874c-43.87500000000001-43.87500000000001-101.51250029296874-65.81249999999999-159.11250029296878-65.81249999999999M399.5 233.9999997070313c-9.600000292968751 0-19.19999970703125 3.67499970703125-26.512499707031253 10.9875005859375a37.455000292968755 37.455000292968755 0 0 0 0 53.024999414062506l225 225a37.455000292968755 37.455000292968755 0 0 0 53.024999414062506 0 37.455000292968755 37.455000292968755 0 0 0 0-53.024999414062506l-225-225A37.394999999999996 37.394999999999996 0 0 0 399.5 233.9999997070313"  horiz-adv-x="1024" />

    
    <glyph glyph-name="youhuimingxi" unicode="&#58922;" d="M755.2 723.2c-57.6 0-102.4-44.8-102.4-102.4s44.8-102.4 102.4-102.4c57.6 0 102.4 44.8 102.4 102.4 0 57.6-51.2 102.4-102.4 102.4zM755.2 576c-25.6 0-51.2 25.6-51.2 51.2s19.2 51.2 51.2 51.2c25.6 0 51.2-19.2 51.2-51.2s-25.6-51.2-51.2-51.2zM864 832h-262.4c-25.6 0-51.2-12.8-64-25.6l-441.6-441.6c-38.4-38.4-38.4-96 0-134.4l262.4-262.4c19.2-19.2 44.8-25.6 64-25.6s44.8 12.8 64 25.6l441.6 441.6c19.2 19.2 25.6 44.8 25.6 64v262.4c6.4 51.2-38.4 96-89.6 96zM889.6 480c0-12.8-6.4-25.6-12.8-32l-422.4-422.4c-12.8-12.8-19.2-12.8-32-12.8s-19.2 6.4-32 12.8l-243.2 236.8c-6.4 12.8-12.8 19.2-12.8 32s6.4 25.6 12.8 32l422.4 422.4c6.4 12.8 19.2 12.8 32 12.8h249.6c19.2 0 44.8-25.6 44.8-44.8l-6.4-236.8z"  horiz-adv-x="1025" />

    
    <glyph glyph-name="yianzhuangshu" unicode="&#58926;" d="M928 416c-38.4 25.6-89.6 0-96-6.4 0 0-147.2-89.6-179.2-108.8-19.2-12.8-44.8 0-57.6 6.4-44.8 51.2-76.8 102.4-102.4 147.2-25.6 51.2 6.4 76.8 6.4 76.8s160 96 204.8 121.6c32 12.8 51.2 32 57.6 57.6 6.4 12.8 0 32-12.8 44.8-25.6 38.4-230.4 115.2-422.4 0-217.6-128-211.2-332.8-204.8-403.2v-12.8c0-32-25.6-64-25.6-64l-32-32c-12.8-12.8-12.8-32 0-44.8 12.8-12.8 32-12.8 44.8 0l32 32c6.4 6.4 38.4 51.2 38.4 108.8v12.8c0 64-6.4 236.8 172.8 345.6 153.6 89.6 300.8 38.4 332.8 19.2-6.4 0-12.8-6.4-19.2-12.8-44.8-25.6-198.4-115.2-211.2-121.6-25.6-19.2-70.4-76.8-32-153.6 25.6-51.2 57.6-108.8 115.2-166.4 19.2-19.2 76.8-44.8 128-19.2 32 19.2 185.6 108.8 185.6 108.8 12.8 6.4 25.6 12.8 32 12.8 0 0 6.4-6.4 0-38.4-6.4-51.2-51.2-230.4-281.6-268.8-70.4-12.8-128-6.4-179.2 0-51.2 6.4-96 12.8-134.4-19.2-44.8-38.4-51.2-44.8-44.8-64 6.4-12.8 19.2-25.6 32-25.6h6.4c6.4 0 12.8 6.4 19.2 12.8 0 0 12.8 12.8 32 25.6 12.8 12.8 38.4 6.4 83.2 6.4 51.2-6.4 115.2-12.8 198.4 0 217.6 38.4 313.6 192 332.8 320 19.2 57.6 6.4 89.6-19.2 102.4z"  horiz-adv-x="1024" />

    
    <glyph glyph-name="shangpuzongshu" unicode="&#58927;" d="M953.6 544v6.4l-76.8 185.6c-12.8 38.4-51.2 64-96 64h-524.8c-44.8 0-76.8-25.6-89.6-57.6l-83.2-192v-6.4c-6.4-19.2-6.4-38.4-6.4-57.6 0-64 38.4-121.6 96-153.6 25.6-12.8 51.2-19.2 83.2-19.2 51.2 0 102.4 25.6 134.4 64 32-38.4 83.2-64 134.4-64s102.4 25.6 134.4 64c32-38.4 83.2-64 134.4-64 32 0 57.6 6.4 83.2 19.2 57.6 32 89.6 89.6 89.6 153.6-6.4 19.2-6.4 38.4-12.8 57.6z m-115.2-153.6c-12.8-6.4-32-12.8-51.2-12.8-38.4 0-76.8 19.2-96 51.2 0 0-6.4 6.4-6.4 12.8-6.4 6.4-12.8 12.8-32 12.8-12.8 0-25.6-6.4-32-12.8-6.4-6.4-6.4-12.8-6.4-12.8-19.2-32-57.6-51.2-96-51.2s-76.8 19.2-96 51.2c0 0-6.4 6.4-6.4 12.8-12.8 19.2-51.2 19.2-64 0-6.4-6.4-6.4-12.8-6.4-12.8-19.2-32-57.6-51.2-96-51.2-19.2 0-38.4 6.4-51.2 12.8-38.4 19.2-57.6 57.6-57.6 96 0 12.8 0 25.6 6.4 38.4l76.8 185.6c0 6.4 6.4 19.2 32 19.2h524.8c12.8 0 25.6 0 32-19.2l76.8-185.6v-6.4c6.4-12.8 6.4-25.6 6.4-38.4 0-32-19.2-70.4-57.6-89.6z m25.6-102.4c-19.2 0-32-12.8-32-32v-172.8c0-12.8-6.4-19.2-19.2-19.2h-601.6c-12.8 0-19.2 6.4-19.2 19.2V256c0 19.2-12.8 32-32 32s-32-12.8-32-32v-172.8c0-44.8 38.4-83.2 83.2-83.2h601.6c44.8 0 83.2 38.4 83.2 83.2V256c0 19.2-12.8 32-32 32z m-96 224h-512c-19.2 0-32 12.8-32 32s12.8 32 32 32h512c19.2 0 32-12.8 32-32s-12.8-32-32-32z"  horiz-adv-x="1024" />

    
    <glyph glyph-name="yishangxianshu" unicode="&#58929;" d="M928 416c-19.2 0-32-12.8-32-32 0-211.2-172.8-384-384-384s-384 172.8-384 384c0 19.2-12.8 32-32 32s-32-12.8-32-32c0-57.6 12.8-121.6 38.4-172.8 25.6-51.2 57.6-102.4 96-140.8s89.6-76.8 140.8-96c57.6-25.6 115.2-38.4 172.8-38.4s121.6 12.8 172.8 38.4c51.2 25.6 102.4 57.6 140.8 96s70.4 89.6 96 140.8c25.6 57.6 38.4 115.2 38.4 172.8 6.4 19.2-12.8 32-32 32zM313.6 563.2c6.4 0 19.2 0 25.6 6.4l147.2 147.2v-544c0-19.2 12.8-32 32-32s32 12.8 32 32v544l147.2-147.2c6.4-6.4 12.8-6.4 25.6-6.4 6.4 0 19.2 0 25.6 6.4 12.8 12.8 12.8 32 0 44.8l-198.4 198.4c-6.4 6.4-12.8 12.8-25.6 12.8-6.4 0-19.2-6.4-25.6-12.8l-198.4-198.4c-12.8-12.8-12.8-32 0-44.8-6.4 0 0-6.4 12.8-6.4z"  horiz-adv-x="1024" />

    
    <glyph glyph-name="caijidianzongshu" unicode="&#58931;" d="M102.4 128c-6.4 0-19.2 0-25.6 6.4-19.2 12.8-12.8 38.4 0 57.6l243.2 281.6 147.2-147.2 262.4 294.4 217.6-249.6c12.8-19.2 12.8-44.8-6.4-51.2-19.2-12.8-38.4-12.8-51.2 6.4l-160 185.6-256-288-147.2 147.2-198.4-224c-6.4-12.8-19.2-19.2-25.6-19.2z"  horiz-adv-x="1024" />

    
    <glyph glyph-name="xiaoshoue" unicode="&#58933;" d="M959.999 430.934c0 6.4-6.4 12.8-12.8 19.2l-422.4 320c-6.4 6.4-19.2 6.4-25.6 0l-422.4-320c-6.4-6.4-12.8-12.8-12.8-19.2s0-12.8 6.4-19.2l70.4-115.2c6.4-12.8 19.2-12.8 32-6.4l25.6 19.2 64-288c0-12.8 12.8-19.2 25.6-19.2h448c12.8 0 19.2 6.4 25.6 19.2l64 288 25.6-19.2c12.8-6.4 25.6-6.4 32 6.4l70.4 115.2c6.4 6.4 6.4 12.8 6.4 19.2zM857.599 341.334l-38.4 25.6c-12.8 6.4-12.8 6.4-25.6 0s-12.8-6.4-12.8-19.2l-64-294.4h-409.6l-64 294.4c0 6.4-6.4 12.8-12.8 19.2s-12.8 6.4-25.6 0l-38.4-25.6-44.8 70.4 390.4 300.8 390.4-300.8-44.8-70.4zM435.199 526.934c-6.4 12.8-19.2 12.8-25.6 6.4-12.8-6.4-12.8-19.2-6.4-25.6l70.4-108.8h-76.8c-12.8 0-19.2-12.8-19.2-19.2s12.8-19.2 19.2-19.2h89.6v-64h-89.6c-12.8 0-19.2-12.8-19.2-19.2s12.8-19.2 19.2-19.2h89.6v-102.4c0-12.8 12.8-19.2 19.2-19.2s19.2 12.8 19.2 19.2v102.4h96c12.8 0 19.2 12.8 19.2 19.2 0 12.8-12.8 19.2-19.2 19.2h-96v64h96c12.8 0 19.2 12.8 19.2 19.2 0 12.8-12.8 19.2-19.2 19.2h-83.2l70.4 108.8c6.4 12.8 6.4 19.2-6.4 25.6s-19.2 6.4-25.6-6.4l-76.8-115.2c12.8 0-64 115.2-64 115.2z"  horiz-adv-x="1024" />

    
    <glyph glyph-name="kedanjia" unicode="&#58934;" d="M659.2 396.8c19.2 0 32 12.8 32 32s-12.8 32-32 32h-76.8l76.8 76.8c12.8 12.8 12.8 32 0 44.8-12.8 12.8-32 12.8-44.8 0l-108.8-108.8-108.8 108.8c-12.8 12.8-32 12.8-44.8 0-12.8-12.8-12.8-32 0-44.8l76.8-76.8h-70.4c-19.2 0-32-12.8-32-32s12.8-32 32-32h121.6v-57.6h-121.6c-19.2 0-32-12.8-32-32s12.8-32 32-32h121.6v-70.4c0-19.2 12.8-32 32-32s32 12.8 32 32v70.4h121.6c19.2 0 32 12.8 32 32s-12.8 32-32 32h-121.6v57.6h115.2z m-147.2 435.2c-249.6 0-448-198.4-448-448s198.4-448 448-448 448 198.4 448 448-198.4 448-448 448z m0-832c-211.2 0-384 172.8-384 384s172.8 384 384 384 384-172.8 384-384-172.8-384-384-384z"  horiz-adv-x="1024" />

    
    <glyph glyph-name="xiaoshouzhanbi" unicode="&#58941;" d="M403.2 524.8c-44.8 0-83.2-38.4-83.2-83.2s38.4-83.2 83.2-83.2c44.8 0 83.2 38.4 83.2 83.2 0 44.8-38.4 83.2-83.2 83.2zM403.2 390.4c-25.6 0-51.2 19.2-51.2 51.2 0 25.6 19.2 51.2 51.2 51.2 25.6 0 51.2-19.2 51.2-51.2s-25.6-51.2-51.2-51.2zM960 428.8c0 6.4-6.4 12.8-12.8 19.2l-422.4 320c-6.4 6.4-19.2 6.4-25.6 0l-422.4-320c-6.4-6.4-12.8-12.8-12.8-19.2s0-12.8 6.4-19.2l70.4-115.2c6.4-12.8 19.2-12.8 32-6.4l25.6 19.2 64-288c0-12.8 12.8-19.2 25.6-19.2h448c12.8 0 19.2 6.4 25.6 19.2l64 288 25.6-19.2c12.8-6.4 25.6-6.4 32 6.4l70.4 115.2c6.4 6.4 6.4 6.4 6.4 19.2zM857.6 339.2l-38.4 25.6c-12.8 6.4-12.8 6.4-25.6 0s-12.8-6.4-12.8-19.2l-64-294.4h-409.6l-64 294.4c0 6.4-6.4 12.8-12.8 19.2-6.4 6.4-12.8 6.4-25.6 0l-38.4-25.6-44.8 70.4 390.4 300.8 390.4-300.8-44.8-70.4zM601.6 524.8l-249.6-384h57.6l256 384h-64zM627.2 300.8c-44.8 0-83.2-38.4-83.2-83.2s38.4-83.2 83.2-83.2c44.8 0 83.2 38.4 83.2 83.2s-38.4 83.2-83.2 83.2zM627.2 166.4c-25.6 0-51.2 19.2-51.2 51.2 0 25.6 19.2 51.2 51.2 51.2 25.6 0 51.2-19.2 51.2-51.2s-25.6-51.2-51.2-51.2z"  horiz-adv-x="1024" />

    
    <glyph glyph-name="bishuzhanbi" unicode="&#58942;" d="M396.8 582.4c-44.8 0-83.2-38.4-83.2-83.2s38.4-83.2 83.2-83.2c44.8 0 83.2 38.4 83.2 83.2 0 44.8-38.4 83.2-83.2 83.2zM396.8 448c-25.6 0-51.2 19.2-51.2 51.2 0 25.6 19.2 51.2 51.2 51.2 25.6 0 51.2-19.2 51.2-51.2s-25.6-51.2-51.2-51.2zM595.2 582.4l-249.6-384h57.6l256 384h-64zM620.8 358.4c-44.8 0-83.2-38.4-83.2-83.2 0-44.8 38.4-83.2 83.2-83.2 44.8 0 83.2 38.4 83.2 83.2 0 44.8-38.4 83.2-83.2 83.2zM620.8 224c-25.6 0-51.2 19.2-51.2 51.2 0 25.6 19.2 51.2 51.2 51.2 25.6 0 51.2-19.2 51.2-51.2 6.4-32-25.6-51.2-51.2-51.2zM512 832c-249.6 0-448-198.4-448-448s198.4-448 448-448 448 198.4 448 448-198.4 448-448 448zM512 0c-211.2 0-384 172.8-384 384s172.8 384 384 384 384-172.8 384-384-172.8-384-384-384z"  horiz-adv-x="1024" />

    
    <glyph glyph-name="shangbaoshuju" unicode="&#58947;" d="M480 268.8v416l-115.2-115.2c-12.8-12.8-25.6-12.8-38.4 0-12.8 12.8-12.8 25.6 0 38.4l160 160c6.4 6.4 12.8 12.8 25.6 12.8 6.4 0 19.2-6.4 25.6-12.8l160-160c12.8-12.8 12.8-25.6 0-38.4s-25.6-12.8-38.4 0l-115.2 115.2v-416c0-12.8-12.8-25.6-25.6-25.6-25.6 0-38.4 12.8-38.4 25.6zM928-12.8h-832c-19.2 0-32 12.8-32 32s12.8 32 32 32h832c19.2 0 32-12.8 32-32s-12.8-32-32-32zM800 115.2h-576c-19.2 0-32 12.8-32 32s12.8 32 32 32h576c19.2 0 32-12.8 32-32s-12.8-32-32-32z"  horiz-adv-x="1024" />

    
    <glyph glyph-name="caijishuju" unicode="&#58953;" d="M512 832c-249.6 0-448-198.4-448-448s198.4-448 448-448 448 198.4 448 448-198.4 448-448 448zM512 0c-211.2 0-384 172.8-384 384s172.8 384 384 384 384-172.8 384-384-172.8-384-384-384zM736 416c-6.4 0-12.8 0-19.2-6.4l-64 64c0 6.4 6.4 12.8 6.4 19.2 0 38.4-25.6 64-64 64s-64-25.6-64-64c0-12.8 6.4-32 12.8-38.4l-108.8-108.8-83.2 83.2c0 6.4 6.4 12.8 6.4 25.6 0 38.4-25.6 64-64 64s-64-25.6-64-64 25.6-64 64-64h6.4l89.6-89.6c0-6.4-6.4-12.8-6.4-19.2 0-38.4 25.6-64 64-64s64 25.6 64 64c0 12.8-6.4 25.6-12.8 38.4l108.8 108.8 64-64v-12.8c0-38.4 25.6-64 64-64s64 25.6 64 64c0 32-32 64-64 64z"  horiz-adv-x="1035" />

    
    <glyph glyph-name="jiaoyijine" unicode="&#58956;" d="M808.83 520.502c-22.447 23.633-46.422 44.727-70.413 63.068-3.594 2.747-6.35 4.663-9.543 7.002 44.562 15.314 75.737 51.958 75.737 95.337 0 58.413-55.449 103.107-121.3 103.107-15.158 0-29.124-2.844-41.63-7.609-5.81-2.214-10.17-4.455-13.777-6.548-2.3-0.968-7.214 0.116-8.56 1.797l-0.058-0.047c-5.028 7.528-12.594 16.858-23.608 26.42-20.964 18.204-45.77 29.442-74.097 29.442S468.45 821.233 447.486 803.03c-10.755-9.34-18.136-18.403-23.182-25.847l-0.032 0.026c-1.903-2.254-6.847-3.432-8.574-2.605-3.659 2.16-8.166 4.499-14.217 6.804-12.505 4.765-26.472 7.61-41.631 7.61-65.849 0-121.298-44.696-121.298-103.108 0-37.093 22.881-69.196 57.314-87.367a550.422 550.422 0 0 1-11.012-8.004c-23.962-17.88-47.9-38.724-70.308-62.42-65.097-68.846-104.622-147.57-104.622-234.972 0-242.36 180.616-357.617 398.18-357.617 91.179 0 180.315 18.186 252.439 61.133 97.869 58.28 153.534 156.196 153.534 296.484 0 82.147-39.788 158.444-105.247 227.355zM508.103-10.345c-191.501 0-344.27 97.485-344.27 303.49 0 71.535 33.386 138.036 89.81 197.708 20.125 21.284 41.757 40.118 63.368 56.244 7.533 5.62 14.5 10.484 20.709 14.565 3.617 2.378 6.1 3.922 7.256 4.604 30.398 20.083 27.514 55.47-2.228 70.57 0.076 0.227 0.096 0.325 0.076 0.335l-0.18 0.085c-0.15 0.072-0.15 0.072-0.348 0.164l-1.037 0.485v0.002l-1.43 0.67-0.002-0.006-0.76 0.357-0.595 0.225c-0.045 0.018-0.074 0.047-0.119 0.065l-0.007-0.018-3.13 1.182c-26.27 7.681-42.752 26.306-42.752 45.527 0 25.583 29.028 48.982 67.388 48.982 8.25 0 15.823-1.542 22.5-4.087 3.696-1.408 5.978-2.635 6.52-3.002l3.278-1.89c24.38-11.88 55.784-4.392 73.253 16.303l2.28 3.132c2.252 3.609 7.492 10.163 15.07 16.744 11.927 10.356 24.945 16.253 38.831 16.253 13.885 0 26.903-5.897 38.83-16.253 7.577-6.58 12.82-13.135 15.07-16.744l1.827-2.579c17.015-21.274 48.716-28.356 73.16-17.116l3.824 2.15c0.541 0.367 2.826 1.594 6.522 3.002 6.677 2.545 14.25 4.087 22.499 4.087 38.36 0 67.389-23.4 67.389-48.982 0-19.22-16.483-37.846-42.752-45.527l-3.85-1.453c-7.572-3.544-12.582-5.209-14.446-5.616-37.802-11.691-44.226-50.269-13.603-71.829a343.667 343.667 0 0 0 8.733-5.772c6.294-4.293 13.35-9.375 20.975-15.204 21.853-16.707 43.72-35.947 64.059-57.358 56.79-59.788 90.35-124.14 90.35-190.002-0.004-216.667-145.815-303.493-352.068-303.493z m112.314 318.78c12.407 0 22.463 10.281 22.463 22.963s-10.056 22.963-22.463 22.963H528.64l85.198 87.094c8.773 8.967 8.773 23.506 0 32.473a22.118 22.118 0 0 1-31.767 0l-73.968-75.612-73.966 75.612a22.118 22.118 0 0 1-31.768 0c-8.773-8.967-8.773-23.506 0-32.473l85.199-87.094H395.79c-12.406 0-22.462-10.281-22.462-22.963s10.056-22.963 22.462-22.963h89.85v-22.963h-89.85c-12.406 0-22.462-10.281-22.462-22.963s10.056-22.963 22.462-22.963h89.85v-66.135c0-9.701 10.058-17.564 22.462-17.564 12.407 0 22.463 7.862 22.463 17.564v66.135h89.851c12.407 0 22.463 10.281 22.463 22.963s-10.056 22.963-22.463 22.963h-89.851v22.963h89.852z"  horiz-adv-x="1024" />

    
    <glyph glyph-name="jiaoyibishu" unicode="&#58957;" d="M512 0c211.2 0 384 172.8 384 384s-172.8 384-384 384-384-172.8-384-384 172.8-384 384-384zM512-64c-249.6 0-448 198.4-448 448s198.4 448 448 448 448-198.4 448-448-198.4-448-448-448zM448 576c12.8 12.8 12.8 32 0 44.8-12.8 12.8-32 12.8-44.8 0l-108.8-115.2c-12.8-12.8-12.8-32 0-44.8 6.4-6.4 12.8-6.4 19.2-6.4h384c19.2 0 32 12.8 32 32s-12.8 32-32 32h-313.6c6.4-6.4 64 57.6 64 57.6zM576 192c-12.8-12.8-12.8-32 0-44.8s32-12.8 44.8 0l108.8 115.2c12.8 12.8 12.8 32 0 44.8-6.4 6.4-12.8 6.4-19.2 6.4h-384c-19.2 0-32-12.8-32-32s12.8-32 32-32h313.6l-64-57.6z"  horiz-adv-x="1024" />

    
    <glyph glyph-name="feixiaoshoudanshu" unicode="&#58959;" d="M857.6 755.2h-652.8c-70.4 0-128-57.6-128-128v-524.8c0-70.4 57.6-128 128-128h640c70.4 0 128 57.6 128 128v524.8c0 76.8-44.8 128-115.2 128zM908.8 108.8c0-32-32-64-64-64h-640c-38.4 0-64 25.6-64 64v518.4c0 32 25.6 64 64 64h640c38.4 0 64-25.6 64-64v-518.4zM761.6 473.6h-448c-19.2 0-32-19.2-32-38.4s12.8-32 32-32h448c19.2 0 32 12.8 32 32 0 25.6-12.8 38.4-32 38.4zM761.6 313.6h-448c-19.2 0-32-19.2-32-38.4s12.8-32 32-32h448c19.2 0 32 12.8 32 32s-12.8 38.4-32 38.4zM364.8 614.4c-19.2 0-32 12.8-32 32v153.6c0 19.2 12.8 32 32 32s32-12.8 32-32v-153.6c0-19.2-12.8-32-32-32zM684.8 614.4c-19.2 0-32 12.8-32 32v153.6c0 19.2 12.8 32 32 32s32-12.8 32-32v-153.6c0-19.2-12.8-32-32-32z"  horiz-adv-x="1049" />

    
    <glyph glyph-name="shebeiyunhangzhuangtai" unicode="&#58961;" d="M593.92 8.32v-64a469.76 469.76 0 0 1 366.08 384h-64a420.48 420.48 0 0 0-300.8-316.16zM814.72 384A302.08 302.08 0 1 0 512 683.52 302.08 302.08 0 0 0 814.72 384zM512 634.24a256 256 0 1 1 256-256 256 256 0 0 1-256 256zM896 448h64A469.76 469.76 0 0 1 593.92 832v-64A420.48 420.48 0 0 0 896 448zM128 320H64a469.76 469.76 0 0 1 366.08-384v64A421.12 421.12 0 0 0 128 320z m302.08 439.68v64A469.76 469.76 0 0 1 64 444.16h64a421.12 421.12 0 0 0 300.8 316.16z"  horiz-adv-x="1024" />

    
    <glyph glyph-name="shebeiduanwanggeshu" unicode="&#58966;" d="M968.534 563.2c-473.6 416-889.6 0-889.6 0-12.8-12.8-12.8-32 0-44.8 6.4-6.4 12.8-12.8 25.6-12.8s19.2 6.4 25.6 12.8c19.2 19.2 377.6 377.6 800 0 12.8-12.8 32-12.8 44.8 0 12.8 12.8 6.4 38.4-6.4 44.8zM200.534 422.4c-12.8-12.8-12.8-32 0-44.8 6.4-6.4 12.8-6.4 19.2-6.4 6.4 0 19.2 6.4 25.6 12.8 6.4 12.8 249.6 268.8 550.4 0 12.8-12.8 32-12.8 44.8 0s12.8 32 0 44.8c-345.6 307.2-633.6-6.4-640-6.4zM514.134 371.2c-108.8-6.4-179.2-89.6-185.6-96-12.8-19.2-12.8-32 6.4-44.8 12.8-12.8 32-6.4 44.8 6.4 0 0 57.6 70.4 140.8 70.4 51.2 0 102.4-25.6 153.6-76.8 6.4-6.4 12.8-12.8 25.6-12.8s19.2 6.4 25.6 12.8c6.4 6.4 12.8 32 0 44.8-76.8 64-140.8 96-211.2 96zM603.734 204.8c-12.8 12.8-25.6 12.8-38.4 0l-38.4-38.4-38.4 38.4c-12.8 12.8-25.6 12.8-38.4 0s-12.8-25.6 0-38.4l38.4-38.4-38.4-38.4c-12.8-12.8-12.8-25.6 0-38.4 6.4-6.4 12.8-6.4 19.2-6.4 6.4 0 12.8 0 19.2 6.4l38.4 38.4 38.4-38.4c6.4-6.4 12.8-6.4 19.2-6.4s12.8 0 19.2 6.4c12.8 12.8 12.8 25.6 0 38.4l-38.4 38.4 38.4 38.4c12.8 6.4 12.8 25.6 0 38.4z"  horiz-adv-x="1024" />

    
    <glyph glyph-name="weichulijiaoyishu" unicode="&#58969;" d="M512 0c211.2 0 384 172.8 384 384s-172.8 384-384 384-384-172.8-384-384 172.8-384 384-384z m0-64c-249.6 0-448 198.4-448 448s198.4 448 448 448 448-198.4 448-448-198.4-448-448-448z m-64 640c12.8 12.8 12.8 32 0 44.8-12.8 12.8-32 12.8-44.8 0l-108.8-115.2c-12.8-12.8-12.8-32 0-44.8 6.4-6.4 12.8-6.4 19.2-6.4h384c19.2 0 32 12.8 32 32s-12.8 32-32 32h-313.6c6.4-6.4 64 57.6 64 57.6z m128-384c-12.8-12.8-12.8-32 0-44.8 12.8-12.8 32-12.8 44.8 0l108.8 115.2c12.8 12.8 12.8 32 0 44.8-6.4 6.4-12.8 6.4-19.2 6.4h-384c-19.2 0-32-12.8-32-32s12.8-32 32-32h313.6l-64-57.6z"  horiz-adv-x="1024" />

    
    <glyph glyph-name="liexianshishezhi" unicode="&#58972;" d="M921.699 346.951H355.616c-20.749 0-37.54 16.79-37.54 37.54 0 20.733 16.791 37.542 37.54 37.542h566.083c20.756 0 37.546-16.808 37.546-37.542 0-20.75-16.79-37.54-37.546-37.54z m0 300.324H355.616c-20.749 0-37.54 16.809-37.54 37.541 0 20.731 16.791 37.54 37.54 37.54h566.083c20.756 0 37.546-16.809 37.546-37.54 0-20.732-16.79-37.54-37.546-37.54z m-785.19-638.183c-41.464 0-75.086 33.617-75.086 75.076 0 41.466 33.622 75.08 75.087 75.08 41.46 0 75.08-33.615 75.08-75.08 0-41.46-33.62-75.076-75.08-75.076z m0 300.32c-41.464 0-75.086 33.621-75.086 75.078 0 41.468 33.622 75.083 75.087 75.083 41.46 0 75.08-33.615 75.08-75.083 0-41.456-33.62-75.079-75.08-75.079z m0 300.324c-41.464 0-75.086 33.616-75.086 75.08 0 41.466 33.622 75.082 75.087 75.082 41.46 0 75.08-33.615 75.08-75.082 0-41.465-33.62-75.08-75.08-75.08z m219.107-488.023h566.083c20.756 0 37.546-16.791 37.546-37.54s-16.79-37.542-37.546-37.542H355.616c-20.749 0-37.54 16.792-37.54 37.541s16.79 37.541 37.54 37.541z m0 0"  horiz-adv-x="1024" />

    
    <glyph glyph-name="zhankai" unicode="&#58974;" d="M531.2 731.732c-6.4 12.8-12.8 12.8-19.2 12.8-12.8 0-19.2-6.4-32-12.8l-332.8-339.2c-12.8-12.8-12.8-38.4 0-51.2 12.8-12.8 38.4-12.8 51.2 0l313.6 320 313.6-320c12.8-12.8 38.4-12.8 51.2 0 12.8 12.8 12.8 38.4 0 51.2l-345.6 339.2zM531.2 462.932c-6.4 12.8-12.8 12.8-19.2 12.8-12.8 0-19.2-6.4-32-12.8l-332.8-339.2c-12.8-12.8-12.8-38.4 0-51.2 12.8-12.8 38.4-12.8 51.2 0l313.6 320 313.6-320c12.8-12.8 38.4-12.8 51.2 0 12.8 12.8 12.8 38.4 0 51.2l-345.6 339.2z"  horiz-adv-x="1024" />

    
    <glyph glyph-name="shouqi" unicode="&#58975;" d="M544 57.60000000000002c83.2 83.2 332.8 339.2 332.8 339.2 12.8 12.8 12.8 38.4 0 51.2-12.8 12.8-38.4 12.8-51.2 0l-313.6-320-313.6 320c-12.8 12.8-38.4 12.8-51.2 0-12.8-12.8-12.8-38.4 0-51.2l332.8-339.2c6.4-6.4 19.2-12.8 25.6-12.8 19.2 0 25.6 6.4 38.4 12.8zM544 326.4c83.2 83.2 332.8 339.2 332.8 339.2 12.8 12.8 12.8 38.4 0 51.2-12.8 12.8-38.4 12.8-51.2 0l-313.6-320-313.6 320c-12.8 12.8-38.4 12.8-51.2 0-12.8-12.8-12.8-38.4 0-51.2l332.8-339.2c6.4-6.4 19.2-12.8 25.6-12.8 19.2-6.4 25.6 0 38.4 12.8z"  horiz-adv-x="1024" />

    
    <glyph glyph-name="bianji" unicode="&#58976;" d="M846.933-64h-640c-32 0-70.4 12.8-96 38.4s-38.4 57.6-38.4 89.6v646.4c0 32 19.2 64 44.8 83.2s57.6 32 89.6 32h345.6c19.2 0 32-12.8 32-32s-12.8-32-32-32h-345.6c-32 0-70.4-19.2-70.4-51.2v-646.4c0-32 38.4-70.4 70.4-70.4h640c32 0 51.2 32 51.2 70.4v332.8c0 19.2 12.8 32 32 32s32-12.8 32-32v-332.8c0-32-12.8-64-32-89.6s-51.2-38.4-83.2-38.4zM507.733 345.6c-12.8 0-19.2 6.4-25.6 12.8-12.8 12.8-12.8 38.4 0 57.6l422.4 409.6c12.8 12.8 38.4 12.8 57.6 0 12.8-12.8 12.8-38.4 0-57.6l-422.4-409.6c-12.8-6.4-19.2-12.8-32-12.8z"  horiz-adv-x="1024" />

    
    <glyph glyph-name="tingyong" unicode="&#58977;" d="M512 832C262.4 832 64 633.6 64 384s198.4-448 448-448 448 198.4 448 448-198.4 448-448 448z m0-64c89.6 0 172.8-32 243.2-89.6l-537.6-537.6C160 211.20000000000005 128 294.4 128 384c0 211.2 172.8 384 384 384z m0-768c-96 0-185.6 38.4-249.6 96l537.6 537.6c57.6-64 96-153.6 96-249.6 0-211.2-172.8-384-384-384z"  horiz-adv-x="1024" />

    
    <glyph glyph-name="shanchu" unicode="&#58978;" d="M832 608h-640c-19.2 0-32 12.8-32 25.6s12.8 25.6 32 25.6h640c19.2 0 32-12.8 32-25.6s-12.8-25.6-32-25.6z m-32-563.2c0-32-25.6-57.6-64-57.6h-448c-38.4 0-64 25.6-64 57.6v505.6h576v-505.6z m-384 704c0 12.8 12.8 25.6 32 25.6h128c19.2 0 32-12.8 32-25.6v-25.6h-192v25.6z m448-32h-192v57.6c0 32-25.6 57.6-64 57.6h-192c-38.4 0-64-25.6-64-57.6v-57.6h-192c-38.4 0-64-25.6-64-57.6v-57.6c0-32 25.6-57.6 64-57.6v-505.6c0-64 57.6-115.2 128-115.2h448c70.4 0 128 51.2 128 115.2v505.6c38.4 0 64 25.6 64 57.6v57.6c0 38.4-25.6 57.6-64 57.6z m-352-672c19.2 0 32 12.8 32 25.6v339.2c0 12.8-12.8 25.6-32 25.6s-32-12.8-32-25.6v-339.2c0-12.8 12.8-25.6 32-25.6z m-160 0c19.2 0 32 12.8 32 25.6v339.2c0 12.8-12.8 25.6-32 25.6s-32-12.8-32-25.6v-339.2c0-12.8 12.8-25.6 32-25.6z m320 0c19.2 0 32 12.8 32 25.6v339.2c0 12.8-12.8 25.6-32 25.6s-32-12.8-32-25.6v-339.2c0-12.8 12.8-25.6 32-25.6z"  horiz-adv-x="1024" />

    
    <glyph glyph-name="guanbi" unicode="&#58979;" d="M512 832c-249.6 0-448-198.4-448-448s198.4-448 448-448 448 198.4 448 448-198.4 448-448 448z m179.2-627.2c-12.8-12.8-32-12.8-44.8 0l-134.4 134.4-128-128c-12.8-12.8-32-12.8-44.8 0-12.8 12.8-12.8 32 0 44.8l128 128-134.4 134.4c-12.8 12.8-12.8 32 0 44.8 12.8 12.8 32 12.8 44.8 0l134.4-134.4 128 128c12.8 12.8 32 12.8 44.8 0 12.8-12.8 12.8-32 0-44.8l-128-128 134.4-134.4c6.4-6.4 6.4-32 0-44.8z"  horiz-adv-x="1024" />

    
    <glyph glyph-name="loudong" unicode="&#58982;" d="M876.8 51.200000000000045v448c0 70.4-57.6 128-128 128h-96v32c0 70.4-57.6 128-128 128h-256c-70.4 0-128-57.6-128-128v-672h736v64z m-288 0h-384v576c0 51.2 44.8 96 96 96h192c51.2 0 96-44.8 96-96v-576z m224 0h-160v512h64c51.2 0 96-44.8 96-96v-416z m-32 384h-96v-64h96v64z m0-160h-96v-64h96v64z m-416 352h-96v-64h96v64z m0-192h-96v-64h96v64z m0-160h-96v-64h96v64z m160 0h-96v-64h96v64z m0 160h-96v-64h96v64z m0 192h-96v-64h96v64zM928-19.200000000000045H96c-19.2 0-32 12.8-32 32s12.8 32 32 32h832c19.2 0 32-12.8 32-32 0-12.8-12.8-32-32-32z"  horiz-adv-x="1024" />

    
    <glyph glyph-name="qiyong" unicode="&#58983;" d="M384 512h96v-249.6h-96V512zM512 774.4c51.2 0 102.4-12.8 153.6-32 44.8-19.2 89.6-44.8 121.6-83.2 38.4-38.4 64-76.8 83.2-121.6 19.2-44.8 32-96 32-153.6 0-51.2-12.8-102.4-32-153.6-19.2-44.8-44.8-89.6-83.2-121.6-38.4-38.4-76.8-64-121.6-83.2-44.8-19.2-96-32-153.6-32-51.2 0-102.4 12.8-153.6 32-44.8 19.2-89.6 44.8-121.6 83.2-38.4 38.4-64 76.8-83.2 121.6-19.2 44.8-32 96-32 153.6 0 51.2 12.8 102.4 32 153.6 19.2 44.8 44.8 89.6 83.2 121.6 38.4 38.4 76.8 64 121.6 83.2 51.2 19.2 102.4 32 153.6 32m0 57.6c-249.6 0-448-198.4-448-448s198.4-448 448-448 448 198.4 448 448-198.4 448-448 448zM672 364.8c-12.8-6.4-249.6-147.2-262.4-153.6-12.8-6.4-32 0-32 19.2v307.2c0 12.8 19.2 25.6 32 19.2 12.8-6.4 243.2-140.8 262.4-153.6 19.2-6.4 12.8-32 0-38.4zM665.6 364.8c-12.8-6.4-236.8-134.4-256-147.2-12.8-6.4-32 0-32 19.2v294.4c0 12.8 12.8 25.6 32 19.2 12.8-6.4 236.8-134.4 256-147.2 12.8-6.4 12.8-32 0-38.4z"  horiz-adv-x="1024" />

    
    <glyph glyph-name="louceng" unicode="&#58984;" d="M89.6 467.2l364.8-256c32-19.2 83.2-19.2 115.2 0l364.8 256c32 19.2 32 51.2 0 70.4l-364.8 217.6c-32 19.2-83.2 19.2-115.2 0l-364.8-217.6c-32-25.6-32-51.2 0-70.4z m422.4 224l332.8-192s6.4 0 0 0l-294.4-217.6c-19.2-12.8-57.6-12.8-83.2 0l-294.4 217.6 339.2 192z m422.4-352l-6.4 6.4-358.4-249.6c-32-19.2-83.2-19.2-115.2 0l-358.4 249.6-6.4-6.4c-32-19.2-32-51.2 0-70.4l364.8-256c32-19.2 83.2-19.2 115.2 0l364.8 256c32 19.2 32 51.2 0 70.4z"  horiz-adv-x="1024" />

    
    <glyph glyph-name="tuichu" unicode="&#58986;" d="M512 320c-19.2 0-32 6.4-44.8 19.2-12.8 12.8-19.2 25.6-19.2 44.8v384c0 19.2 6.4 32 19.2 44.8 12.8 12.8 25.6 19.2 44.8 19.2 19.2 0 32-6.4 44.8-19.2 12.8-12.8 19.2-25.6 19.2-44.8v-384c0-19.2-6.4-32-19.2-44.8-12.8-12.8-25.6-19.2-44.8-19.2zM774.4 582.4c0-12.8 6.4-25.6 12.8-32 44.8-70.4 57.6-153.6 38.4-243.2-25.6-121.6-121.6-217.6-243.2-236.8-204.8-44.8-390.4 115.2-390.4 313.6 0 64 19.2 121.6 44.8 166.4 6.4 12.8 12.8 19.2 12.8 32 0 64-83.2 89.6-121.6 32-57.6-89.6-83.2-204.8-57.6-320 32-172.8 172.8-320 352-352 288-57.6 537.6 160 537.6 441.6 0 83.2-25.6 166.4-64 236.8-38.4 51.2-121.6 32-121.6-38.4z"  horiz-adv-x="1024" />

    
    <glyph glyph-name="guanbixianxing1" unicode="&#58987;" d="M652.8 569.601l-140.8-140.8-140.8 140.8c-12.8 12.8-32 12.8-44.8 0s-12.8-32 0-44.8l140.8-140.8-140.8-140.8c-12.8-12.8-12.8-32 0-44.8s32-12.8 44.8 0l140.8 140.8 140.8-140.8c12.8-12.8 32-12.8 44.8 0s12.8 32 0 44.8l-140.8 140.8 140.8 140.8c12.8 12.8 12.8 32 0 44.8s-32 12.8-44.8 0zM512 774.401c51.2 0 102.4-12.8 153.6-32 44.8-19.2 89.6-44.8 121.6-83.2 38.4-38.4 64-76.8 83.2-121.6 19.2-44.8 32-96 32-153.6 0-51.2-12.8-102.4-32-153.6-19.2-44.8-44.8-89.6-83.2-121.6-38.4-38.4-76.8-64-121.6-83.2-44.8-19.2-96-32-153.6-32-51.2 0-102.4 12.8-153.6 32-44.8 19.2-89.6 44.8-121.6 83.2-38.4 38.4-64 76.8-83.2 121.6-19.2 44.8-32 96-32 153.6 0 51.2 12.8 102.4 32 153.6 19.2 44.8 44.8 89.6 83.2 121.6 38.4 38.4 76.8 64 121.6 83.2 51.2 19.2 102.4 32 153.6 32M512 832.001c-249.6 0-448-198.4-448-448s198.4-448 448-448 448 198.4 448 448-198.4 448-448 448z"  horiz-adv-x="1024" />

    
    <glyph glyph-name="xinjian1" unicode="&#58989;" d="M922.673 418.585h-381.615v381.615c0 19.081-12.72 31.801-31.801 31.801s-31.801-12.72-31.801-31.801v-381.615h-381.615c-19.081 0-31.801-12.72-31.801-31.801s12.72-31.801 31.801-31.801h381.615v-381.615c0-19.081 12.72-31.801 31.801-31.801s31.801 12.72 31.801 31.801v381.615h381.615c19.081 0 31.801 12.72 31.801 31.801s-12.72 31.801-31.801 31.801z"  horiz-adv-x="1024" />

    
    <glyph glyph-name="chenggong" unicode="&#58991;" d="M512 832C262.4 832 64 633.6 64 384s198.4-448 448-448 448 198.4 448 448S761.6 832 512 832z m249.6-313.6l-300.8-300.8c-6.4-6.4-22.4-12.8-32-9.6-6.4 0-12.8 3.2-19.2 9.6l-140.8 140.8c-12.8 12.8-12.8 32 0 44.8 12.8 12.8 32 12.8 44.8 0l121.6-121.6 288 288c12.8 12.8 32 12.8 44.8 0s16-32-6.4-51.2z"  horiz-adv-x="1024" />

    
    <glyph glyph-name="jinggao" unicode="&#58992;" d="M512 832c-249.6 0-448-198.4-448-448s198.4-448 448-448 448 198.4 448 448-198.4 448-448 448z m-38.4-230.4c0 19.2 19.2 38.4 38.4 38.4s38.4-19.2 38.4-38.4v-275.2c0-19.2-19.2-38.4-38.4-38.4s-38.4 19.2-38.4 38.4v275.2z m38.4-473.6c-32 0-57.6 25.6-57.6 57.6s25.6 57.6 57.6 57.6 57.6-25.6 57.6-57.6-25.6-57.6-57.6-57.6z"  horiz-adv-x="1024" />

    
    <glyph glyph-name="xiaoxitixing" unicode="&#58993;" d="M512 832c-249.6 0-448-198.4-448-448s198.4-448 448-448 448 198.4 448 448-198.4 448-448 448z m38.4-665.6c0-19.2-19.2-38.4-38.4-38.4s-38.4 19.2-38.4 38.4v275.2c0 19.2 19.2 38.4 38.4 38.4s38.4-19.2 38.4-38.4v-275.2z m-38.4 358.4c-32 0-57.6 25.6-57.6 57.6s25.6 57.6 57.6 57.6 57.6-25.6 57.6-57.6-25.6-57.6-57.6-57.6z"  horiz-adv-x="1024" />

    
    <glyph glyph-name="fanhui" unicode="&#58997;" d="M512-64c-249.6 0-448 198.4-448 448s198.4 448 448 448 448-198.4 448-448-198.4-448-448-448z m0 838.4c-217.6 0-390.4-172.8-390.4-390.4s172.8-390.4 390.4-390.4c217.6 0 390.4 172.8 390.4 390.4 0 217.6-172.8 390.4-390.4 390.4z m198.4-416h-294.4l115.2-115.2c12.8-12.8 12.8-25.6 0-38.4-12.8-12.8-25.6-12.8-38.4 0l-160 160c-6.4 6.4-6.4 12.8-6.4 25.6 0 6.4 0 19.2 6.4 25.6l160 160c12.8 12.8 25.6 12.8 38.4 0 12.8-12.8 12.8-25.6 0-38.4l-115.2-115.2h294.4c12.8 0 25.6-12.8 25.6-25.6 0-25.6-12.8-38.4-25.6-38.4z"  horiz-adv-x="1024" />

    
    <glyph glyph-name="quxiao1" unicode="&#58998;" d="M511.999 831.999c-249.6 0-448-198.4-448-448s198.4-448 448-448 448 198.4 448 448-198.4 448-448 448zM511.999-0.001c-211.2 0-384 172.8-384 384s172.8 384 384 384 384-172.8 384-384-172.8-384-384-384zM255.999 415.999h512v-64h-512z"  horiz-adv-x="1024" />

    
    <glyph glyph-name="yadan" unicode="&#59001;" d="M896 198.4v563.2c0 38.4-32 76.8-70.4 76.8h-633.6c-38.4 0-70.4-32-70.4-76.8v-748.8c0-38.4 32-76.8 70.4-76.8h467.2l236.8 262.4zM665.6 25.6v128c0 25.6 12.8 44.8 38.4 44.8h115.2l-153.6-172.8zM198.4-0c-6.4 0-12.8 6.4-12.8 12.8v748.8c0 6.4 6.4 12.8 12.8 12.8h633.6c6.4 0 12.8-6.4 12.8-12.8v-492.8h-140.8c-51.2 0-96-44.8-96-108.8v-160h-409.6zM326.4 563.2h358.4c12.8 0 25.6 12.8 25.6 32s-19.2 32-25.6 32h-358.4c-12.8 0-25.6-12.8-25.6-32s12.8-32 25.6-32zM326.4 396.8h358.4c12.8 0 25.6 12.8 25.6 32s-19.2 32-25.6 32h-358.4c-12.8 0-25.6-12.8-25.6-32s12.8-32 25.6-32zM524.8 288h-204.8c-12.8 0-25.6-12.8-25.6-32s12.8-32 25.6-32h204.8c12.8 0 25.6 12.8 25.6 32s-12.8 32-25.6 32z"  horiz-adv-x="1024" />

    
    <glyph glyph-name="shenhe" unicode="&#59002;" d="M518.4 842.667c-249.6 0-448-198.4-448-448s198.4-448 448-448 448 198.4 448 448-198.4 448-448 448zM518.4 10.667c-211.2 0-384 172.8-384 384s172.8 384 384 384 384-172.8 384-384-172.8-384-384-384zM697.6 426.667h-153.6v211.2c0 19.2-12.8 32-32 32s-32-12.8-32-32v-243.2c0-19.2 12.8-32 32-32h179.2c19.2 0 32 12.8 32 32s-6.4 32-25.6 32z"  horiz-adv-x="1024" />

    
    <glyph glyph-name="fou" unicode="&#58999;" d="M576 384l371.2 371.2c19.2 19.2 19.2 44.8 0 64-19.2 19.2-44.8 19.2-64 0l-371.2-371.2-371.2 371.2c-19.2 19.2-44.8 19.2-64 0-19.2-19.2-19.2-44.8 0-64l371.2-371.2-371.2-371.2c-19.2-19.2-19.2-44.8 0-64 6.4-6.4 19.2-12.8 32-12.8s25.6 6.4 32 12.8l371.2 371.2 371.2-371.2c6.4-6.4 19.2-12.8 32-12.8s25.6 6.4 32 12.8c19.2 19.2 19.2 44.8 0 64l-371.2 371.2z"  horiz-adv-x="1024" />

    
    <glyph glyph-name="shi" unicode="&#59000;" d="M377.6 64c-12.8 0-19.2 6.4-25.6 12.8L76.8 358.4c-12.8 19.2-12.8 44.8 0 57.6 12.8 19.2 44.8 19.2 57.6 0L384 166.39999999999998l512 524.8c12.8 19.2 44.8 19.2 57.6 0s12.8-44.8 0-57.6l-537.6-550.4c-19.2-19.2-32-19.2-38.4-19.2z"  horiz-adv-x="1024" />

    
    <glyph glyph-name="bucha" unicode="&#59005;" d="M512.001-63.999c-249.6 0-448 198.4-448 448s198.4 448 448 448c243.2 0 448-198.4 448-441.6 0-19.2-12.8-38.4-32-38.4s-38.4 12.8-38.4 32c0 211.2-172.8 377.6-377.6 377.6-211.2 0-377.6-172.8-377.6-377.6 0-211.2 172.8-377.6 377.6-377.6 121.6 0 236.8 64 307.2 166.4 12.8 19.2 32 19.2 51.2 12.8s19.2-32 12.8-51.2c-64-96-166.4-160-288-185.6-25.6-6.4-57.6-12.8-83.2-12.8zM659.201 396.801c19.2 0 32 12.8 32 32s-12.8 32-32 32h-76.8l76.8 76.8c12.8 12.8 12.8 32 0 44.8s-32 12.8-44.8 0l-108.8-108.8-108.8 108.8c-12.8 12.8-32 12.8-44.8 0s-12.8-32 0-44.8l76.8-76.8h-70.4c-19.2 0-32-12.8-32-32s12.8-32 32-32h121.6v-57.6h-121.6c-19.2 0-32-12.8-32-32s12.8-32 32-32h121.6v-70.4c0-19.2 12.8-32 32-32s32 12.8 32 32v70.4h121.6c19.2 0 32 12.8 32 32s-12.8 32-32 32h-121.6v57.6h115.2z"  horiz-adv-x="1024" />

    
    <glyph glyph-name="weishangchuanjiaoyishu" unicode="&#59006;" d="M390.4 601.6c-12.8 12.8-25.6 12.8-38.4 0l-96-96c-12.8-12.8-12.8-25.6 0-38.4s25.6-12.8 38.4 0l51.2 51.2v-352c0-12.8 12.8-25.6 25.6-25.6s25.6 12.8 25.6 25.6v352l51.2-51.2c12.8-12.8 25.6-12.8 38.4 0 12.8 12.8 12.8 25.6 0 38.4l-96 96zM780.8 281.6c-12.8 12.8-25.6 12.8-38.4 0l-51.2-51.2v352c0 12.8-12.8 25.6-25.6 25.6s-25.6-12.8-25.6-25.6v-352l-51.2 51.2c-12.8 12.8-25.6 12.8-38.4 0s-12.8-25.6 0-38.4l96-96c12.8-12.8 25.6-12.8 38.4 0l96 96c6.4 12.8 6.4 32 0 38.4zM672-32c-236.8-89.6-486.4 32-576 262.4-89.6 236.8 32 486.4 262.4 576 230.4 83.2 486.4-32 576-256 6.4-19.2 0-38.4-19.2-44.8-19.2-6.4-38.4 0-44.8 19.2-70.4 198.4-294.4 294.4-486.4 224-198.4-70.4-294.4-294.4-224-486.4 70.4-198.4 294.4-294.4 486.4-224 115.2 44.8 198.4 140.8 230.4 262.4 6.4 25.6 25.6 32 44.8 32s32-25.6 32-44.8c-25.6-115.2-102.4-217.6-211.2-281.6-19.2-19.2-38.4-25.6-70.4-38.4zM876.8 537.6l19.2 134.4c0 19.2 19.2 32 38.4 25.6 19.2 0 32-19.2 25.6-38.4l-19.2-134.4c0-19.2-19.2-32-38.4-25.6-19.2 0-32 19.2-25.6 38.4z"  horiz-adv-x="1024" />

    
    <glyph glyph-name="quxiaoqueren" unicode="&#59007;" d="M351.999-32c-32 12.8-44.8 19.2-70.4 32-102.4 64-185.6 166.4-211.2 281.6 0 19.2 6.4 44.8 32 44.8s38.4-6.4 44.8-32c32-121.6 115.2-217.6 230.4-262.4 192-70.4 409.6 25.6 486.4 224 70.4 192-25.6 409.6-224 486.4-192 70.4-409.6-25.6-486.4-224-6.4-19.2-32-25.6-44.8-19.2-19.2 6.4-25.6 32-19.2 44.8 83.2 230.4 345.6 345.6 576 256 236.8-89.6 352-339.2 262.4-576-83.2-230.4-339.2-345.6-576-256zM153.599 537.6l-19.2 134.4c0 19.2-19.2 32-38.4 25.6-19.2 0-32-19.2-25.6-38.4l19.2-134.4c0-19.2 19.2-32 38.4-25.6 19.2 0 25.6 19.2 25.6 38.4zM422.399 204.8l-179.2 179.2c-12.8 12.8-12.8 32 0 44.8s32 12.8 44.8 0l179.2-179.2c12.8-12.8 12.8-32 0-44.8s-32-12.8-44.8 0zM787.199 524.8l-313.6-313.6c-12.8-12.8-32-12.8-44.8 0s-12.8 32 0 44.8l313.6 313.6c12.8 12.8 32 12.8 44.8 0s12.8-38.4 0-44.8z"  horiz-adv-x="1024" />

    
    <glyph glyph-name="chakan" unicode="&#59011;" d="M511.466 626.431c169.452 0 315.308-99.39 383.565-242.84h66.514c-72.09 177.91-246.293 303.527-450.08 303.527-203.754 0-377.957-125.617-450.046-303.526h66.515c68.255 143.449 214.111 242.84 383.532 242.84zM511.466 140.752c-169.42 0-315.277 99.39-383.532 242.84H61.419C133.507 205.65 307.71 80.034 511.466 80.034c203.786 0 377.99 125.617 450.079 303.558H895.03c-68.257-143.45-214.112-242.84-383.565-242.84zM349.594 383.576c0-89.412 72.474-161.886 161.885-161.886 89.414 0 161.886 72.474 161.886 161.886 0 89.414-72.472 161.886-161.886 161.886-89.412 0-161.885-72.472-161.885-161.886z m263.084 0c0-55.88-45.32-101.197-101.199-101.197s-101.166 45.318-101.166 101.197c0 55.88 45.287 101.2 101.166 101.2s101.199-45.32 101.199-101.2z"  horiz-adv-x="1024" />

    
    <glyph glyph-name="xiezai" unicode="&#59013;" d="M819.2 736l38.4-38.4c25.6-25.6 25.6-64 0-89.6l-198.4-198.4 51.2-51.2 211.2 204.8c51.2 51.2 51.2 128 0 172.8l-57.6 57.6c-51.2 51.2-121.6 51.2-172.8 0l-211.2-204.8 51.2-51.2 204.8 192c19.2 32 57.6 32 83.2 6.4zM204.8 32l-38.4 44.8c-25.6 25.6-25.6 64 0 89.6l224 230.4-51.2 51.2-230.4-243.2c-51.2-51.2-51.2-121.6 0-172.8l57.6-57.6c51.2-51.2 121.6-51.2 172.8 0l230.4 243.2-51.2 51.2-224-230.4c-25.6-32-64-32-89.6-6.4zM659.2 217.6l-307.2 320c-12.8 12.8-12.8 25.6 0 38.4l6.4 6.4c19.2 12.8 25.6 12.8 38.4 0l307.2-320c12.8-12.8 12.8-25.6 0-38.4l-6.4-6.4c-6.4-6.4-19.2-19.2-38.4 0z"  horiz-adv-x="1024" />

    
    <glyph glyph-name="gengduo" unicode="&#59016;" d="M236.8 384c0-38.4 25.6-64 64-64s64 25.6 64 64-25.6 64-64 64-64-25.6-64-64zM448 384c0-38.4 25.6-64 64-64s64 25.6 64 64-25.6 64-64 64-64-25.6-64-64zM659.2 384c0-38.4 25.6-64 64-64s64 25.6 64 64-25.6 64-64 64-64-25.6-64-64zM960 384c0-249.6-198.4-448-448-448s-448 198.4-448 448 198.4 448 448 448c243.2 0 448-204.8 448-448z m-448 384c-211.2 0-384-172.8-384-384s172.8-384 384-384 384 172.8 384 384-172.8 384-384 384z"  horiz-adv-x="1024" />

    
    <glyph glyph-name="quxiaoyanshou" unicode="&#59017;" d="M883.2 716.8c-12.8 12.8-25.6 6.4-38.4 6.4h-32c-25.6 0-76.8 0-121.6 12.8-57.6 12.8-128 76.8-147.2 89.6-12.8 6.4-19.2 6.4-32 6.4s-25.6 0-32-6.4c0 0-76.8-76.8-147.2-89.6-44.8-12.8-96-12.8-121.6-12.8h-32c-12.8 0-32-6.4-38.4-12.8-12.8-12.8-19.2-25.6-19.2-38.4v-140.8c0-518.4 358.4-582.4 377.6-588.8h25.6c12.8 0 384 70.4 384 588.8v140.8c0 19.2-12.8 32-25.6 44.8z m-38.4-185.6c0-480-332.8-531.2-332.8-531.2s-332.8 57.6-332.8 531.2v140.8h32c32 0 83.2 0 134.4 12.8 83.2 19.2 166.4 96 166.4 96s83.2-76.8 166.4-96c51.2-12.8 102.4-12.8 134.4-12.8h32v-140.8zM652.8 576l-140.8-140.8-140.8 140.8c-12.8 12.8-32 12.8-44.8 0s-12.8-32 0-44.8l140.8-140.8-140.8-140.8c-12.8-12.8-12.8-32 0-44.8 12.8-12.8 32-12.8 44.8 0l140.8 140.8 140.8-140.8c12.8-12.8 32-12.8 44.8 0 12.8 12.8 12.8 32 0 44.8l-140.8 140.8 140.8 140.8c12.8 12.8 12.8 32 0 44.8-12.8 12.8-32 12.8-44.8 0z"  horiz-adv-x="1024" />

    
    <glyph glyph-name="yiyanshoushu" unicode="&#59018;" d="M889.6 716.8c-12.8 12.8-25.6 6.4-38.4 6.4h-32c-25.6 0-76.8 0-121.6 12.8-57.6 12.8-128 76.8-147.2 89.6-12.8 6.4-19.2 6.4-32 6.4s-25.6 0-32-6.4c0 0-76.8-76.8-147.2-89.6-44.8-12.8-96-12.8-121.6-12.8h-32c-12.8 0-32-6.4-38.4-12.8-12.8-12.8-19.2-25.6-19.2-38.4v-140.8c0-518.4 358.4-582.4 377.6-588.8h25.6c12.8 0 384 70.4 384 588.8v140.8c-6.4 19.2-12.8 38.4-25.6 44.8z m-38.4-185.6c0-480-332.8-531.2-332.8-531.2s-332.8 57.6-332.8 531.2v140.8h32c32 0 83.2 0 134.4 12.8 83.2 19.2 166.4 96 166.4 96s83.2-76.8 166.4-96c51.2-12.8 102.4-12.8 134.4-12.8h32v-140.8zM428.8 204.8l-179.2 179.2c-12.8 12.8-12.8 32 0 44.8 12.8 12.8 32 12.8 44.8 0l179.2-179.2c12.8-12.8 12.8-32 0-44.8-12.8-12.8-32-12.8-44.8 0zM793.6 524.8l-313.6-313.6c-12.8-12.8-32-12.8-44.8 0-12.8 12.8-12.8 32 0 44.8l313.6 313.6c12.8 12.8 32 12.8 44.8 0 12.8-12.8 12.8-38.4 0-44.8z"  horiz-adv-x="1024" />

    
    <glyph glyph-name="queren1" unicode="&#59021;" d="M512-64c-249.6 0-448 198.4-448 448s198.4 448 448 448 448-198.4 448-448-198.4-448-448-448z m0 838.4c-217.6 0-390.4-172.8-390.4-390.4 0-217.6 172.8-390.4 390.4-390.4 217.6 0 390.4 172.8 390.4 390.4 0 211.2-172.8 390.4-390.4 390.4zM422.4 204.79999999999995l-179.2 179.2c-12.8 12.8-12.8 32 0 44.8 12.8 12.8 32 12.8 44.8 0l179.2-179.2c12.8-12.8 12.8-32 0-44.8-12.8-12.8-32-12.8-44.8 0zM787.2 524.8l-313.6-313.6c-12.8-12.8-32-12.8-44.8 0-12.8 12.8-12.8 32 0 44.8l313.6 313.6c12.8 12.8 32 12.8 44.8 0 12.8-12.8 12.8-38.4 0-44.8z"  horiz-adv-x="1024" />

    
    <glyph glyph-name="fuzhi" unicode="&#59020;" d="M832 688H336c-70.4 0-128-57.6-128-128v-496c0-70.4 57.6-128 128-128h496c70.4 0 128 57.6 128 128V560c0 70.4-57.6 128-128 128z m64-624c0-35.2-28.8-64-64-64H336c-35.2 0-64 28.8-64 64V560c0 35.2 28.8 64 64 64h496c35.2 0 64-28.8 64-64v-496zM750.4 768c17.6 0 32 14.4 32 32s-14.4 32-32 32H208c-78.4 0-144-64-144-144v-542.4c0-17.6 14.4-32 32-32s32 14.4 32 32V688c0 43.2 35.2 80 80 80h542.4zM744 344H614.4V473.6c0 17.6-14.4 32-32 32s-32-14.4-32-32V344H420.8c-17.6 0-32-14.4-32-32s14.4-32 32-32h129.6v-129.6c0-17.6 14.4-32 32-32s32 14.4 32 32V280H744c17.6 0 32 14.4 32 32s-14.4 32-32 32z"  horiz-adv-x="1024" />

    
    <glyph glyph-name="zhongxinshangchuanyanglitu" unicode="&#59025;" d="M475.734 273.066v294.4l-115.2-115.2c-12.8-12.8-25.6-12.8-38.4 0-12.8 12.8-12.8 25.6 0 38.4l160 160c6.4 6.4 12.8 12.8 25.6 12.8 6.4 0 19.2-6.4 25.6-12.8l160-160c12.8-12.8 12.8-25.6 0-38.4-12.8-12.8-25.6-12.8-38.4 0l-115.2 115.2v-294.4c0-12.8-12.8-25.6-25.6-25.6-32-6.4-38.4 12.8-38.4 25.6zM667.734 119.466h-326.4c-19.2 0-32 12.8-32 32s12.8 32 32 32h326.4c19.2 0 32-12.8 32-32s-12.8-32-32-32zM661.334-27.734c-236.8-89.6-486.4 32-576 262.4-89.6 236.8 32 486.4 262.4 576 230.4 83.2 486.4-32 576-256 6.4-19.2 0-38.4-19.2-44.8-19.2-6.4-38.4 0-44.8 19.2-70.4 198.4-294.4 288-486.4 217.6-198.4-70.4-294.4-288-224-480 70.4-198.4 288-300.8 480-230.4 115.2 44.8 204.8 147.2 236.8 268.8 6.4 25.6 25.6 32 44.8 32 19.2 0 32-25.6 32-44.8-25.6-115.2-96-204.8-198.4-281.6-19.2-12.8-51.2-25.6-83.2-38.4zM866.134 541.866l19.2 134.4c0 19.2 19.2 32 38.4 25.6 19.2 0 32-19.2 25.6-38.4l-19.2-134.4c0-19.2-19.2-32-38.4-25.6-19.2 0-32 19.2-25.6 38.4z"  horiz-adv-x="1024" />

    
    <glyph glyph-name="zhongxinshibie" unicode="&#59026;" d="M864 512c-51.2 147.2-192 243.2-345.6 243.2-160 0-300.8-102.4-352-249.6-6.4-19.2 0-32 19.2-38.4 19.2-6.4 32 0 38.4 19.2 44.8 128 160 211.2 294.4 211.2S768 614.4 812.8 492.8c12.8-25.6 19.2-32 38.4-25.6 25.6 12.8 19.2 32 12.8 44.8z m-12.8-211.2c-19.2 6.4-25.6 0-38.4-25.6-44.8-121.6-160-204.8-294.4-204.8S268.8 153.6 224 281.6c-6.4 19.2-19.2 25.6-38.4 19.2-19.2-6.4-25.6-19.2-19.2-38.4 51.2-147.2 192-249.6 352-249.6 153.6 0 294.4 96 345.6 243.2 6.4 12.8 12.8 32-12.8 44.8zM89.6 352h844.8c12.8 0 25.6 19.2 25.6 32s-12.8 32-25.6 32H89.6C76.8 416 64 396.8 64 384s12.8-32 25.6-32z"  horiz-adv-x="1024" />

    
    <glyph glyph-name="xiaoxitixingxianxing" unicode="&#59028;" d="M473.6 441.601c0 19.2 19.2 38.4 38.4 38.4s38.4-19.2 38.4-38.4v-275.2c0-19.2-19.2-38.4-38.4-38.4s-38.4 19.2-38.4 38.4v275.2zM569.6 582.4010000000001c0-32-25.6-57.6-57.6-57.6s-57.6 25.6-57.6 57.6 25.6 57.6 57.6 57.6 57.6-25.6 57.6-57.6zM512 832.001c-249.6 0-448-198.4-448-448s198.4-448 448-448 448 198.4 448 448-198.4 448-448 448zM896 384.001c0-211.2-172.8-384-384-384s-384 172.8-384 384 172.8 384 384 384 384-172.8 384-384z"  horiz-adv-x="1024" />

    
    <glyph glyph-name="jiaoseguanli" unicode="&#59029;" d="M761.6 364.8c-44.8-32-96-44.8-153.6-44.8-57.6 0-108.8 19.2-153.6 44.8-115.2-57.6-198.4-179.2-198.4-320 0-147.2 704-147.2 704 0 0 140.8-83.2 262.4-198.4 320z m-390.4 230.4c0 128 108.8 236.8 236.8 236.8s236.8-108.8 236.8-236.8-108.8-236.8-236.8-236.8-236.8 102.4-236.8 236.8z m-153.6-563.2v-12.8c-89.6 12.8-153.6 44.8-153.6 83.2 0 121.6 70.4 224 172.8 275.2 38.4-25.6 76.8-38.4 121.6-38.4-83.2-70.4-140.8-185.6-140.8-307.2z m115.2 563.2c0 57.6 19.2 115.2 51.2 160h-19.2c-108.8 0-192-89.6-192-192 0-108.8 89.6-192 192-192 25.6 0 44.8 6.4 70.4 12.8-64 44.8-102.4 121.6-102.4 211.2z"  horiz-adv-x="1024" />

    
    <glyph glyph-name="guanliyuan" unicode="&#59030;" d="M518.4 832c128 0 230.4-102.4 230.4-224s-102.4-224-230.4-224-230.4 102.4-230.4 224 102.4 224 230.4 224z m0 0c128 0 230.4-102.4 230.4-224s-102.4-224-230.4-224-230.4 102.4-230.4 224 102.4 224 230.4 224z m-102.4-492.8h198.4c185.6 0 345.6-147.2 345.6-313.6v-19.2c0-64-153.6-70.4-339.2-70.4h-217.6c-185.6 0-339.2 0-339.2 70.4v19.2c6.4 166.4 166.4 313.6 352 313.6z"  horiz-adv-x="1024" />

    
    <glyph glyph-name="yonghuguanli" unicode="&#59031;" d="M339.2 614.4c0-102.4 83.2-185.6 185.6-185.6 102.4 0 185.6 83.2 185.6 185.6 0 102.4-83.2 185.6-185.6 185.6-102.4 0-185.6-83.2-185.6-185.6z m313.6-243.2c-38.4 12.8-83.2 19.2-134.4 19.2-236.8 0-422.4-192-422.4-422.4h544c-44.8 51.2-64 121.6-64 192 0 83.2 32 153.6 76.8 211.2zM902.4 339.20000000000005c-6.4 0-12.8 0-19.2-6.4l-6.4-6.4c-12.8-12.8-25.6-19.2-44.8-19.2-19.2 0-32 6.4-44.8 19.2l-6.4 6.4c-6.4 6.4-12.8 6.4-19.2 6.4h-6.4s-6.4 0-25.6-12.8c-19.2-6.4-19.2-12.8-19.2-12.8-6.4-6.4-6.4-12.8-6.4-19.2v-25.6c0-25.6-19.2-51.2-44.8-57.6h-6.4c-6.4 0-19.2-12.8-19.2-19.2v-51.2c0-6.4 6.4-19.2 19.2-19.2h6.4c25.6-6.4 44.8-32 44.8-57.6v-25.6c0-6.4 0-12.8 6.4-19.2 6.4-6.4 6.4-6.4 19.2-12.8 19.2-6.4 25.6-12.8 25.6-12.8h6.4c6.4 0 12.8 0 19.2 6.4l6.4 6.4c12.8 12.8 25.6 19.2 44.8 19.2 19.2 0 32-6.4 44.8-19.2l6.4-6.4c6.4-6.4 19.2-6.4 25.6-6.4 0 0 6.4 0 25.6 12.8 19.2 6.4 19.2 12.8 19.2 12.8 6.4 6.4 6.4 12.8 6.4 19.2v12.8 12.8c0 25.6 19.2 51.2 44.8 57.6h6.4c6.4 0 19.2 12.8 19.2 19.2v25.6 25.6c0 6.4-6.4 19.2-19.2 19.2h-6.4c-25.6 6.4-44.8 32-44.8 57.6V288v6.4c0 6.4 0 12.8-6.4 19.2-6.4 6.4-6.4 6.4-19.2 12.8m-96-249.6c-44.8 0-83.2 38.4-83.2 83.2 0 44.8 38.4 83.2 83.2 83.2 44.8 0 83.2-38.4 83.2-83.2 0-44.8-38.4-83.2-83.2-83.2z"  horiz-adv-x="1120" />

    
    <glyph glyph-name="jiaoyiguanli" unicode="&#59032;" d="M896 704h-768c-32 0-64-25.6-64-64v-83.2h896V640c0 38.4-32 64-64 64z m-832-576c0-32 25.6-64 64-64h768c32 0 64 25.6 64 64v364.8h-896v-364.8z m147.2 128c32 0 57.6-25.6 57.6-57.6s-25.6-57.6-57.6-57.6-57.6 25.6-57.6 57.6 32 57.6 57.6 57.6z"  horiz-adv-x="1024" />

    
    <glyph glyph-name="quanxuan" unicode="&#59036;" d="M473.6 320c-6.4 0-19.2 6.4-25.6 6.4l-217.6 224c-12.8 12.8-12.8 32 0 44.8 12.8 12.8 32 12.8 44.8 0l198.4-198.4 416 416c12.8 12.8 32 12.8 44.8 0s12.8-32 0-44.8l-435.2-435.2c-12.8-6.4-19.2-12.8-25.6-12.8zM716.8 83.2h-595.2c-32 0-57.6 25.6-57.6 51.2v646.4c0 32 25.6 51.2 57.6 51.2h448c19.2 0 32-12.8 32-32s-12.8-32-32-32h-441.6v-627.2h582.4v288c0 19.2 12.8 32 32 32s32-12.8 32-32v-300.8c0-19.2-25.6-44.8-57.6-44.8zM902.4-64h-601.6c-19.2 0-32 12.8-32 32s12.8 32 32 32h595.2v550.4c0 19.2 12.8 32 32 32s32-12.8 32-32v-556.8c-6.4-32-32-57.6-57.6-57.6z"  horiz-adv-x="1024" />

    
    <glyph glyph-name="bijiao" unicode="&#59037;" d="M659.2 832h-518.4c-38.4 0-76.8-32-76.8-70.4v-550.4c0-38.4 32-70.4 76.8-70.4h518.4c38.4 0 76.8 32 76.8 70.4v550.4c0 38.4-32 70.4-76.8 70.4zM659.2 211.2h-518.4v550.4h518.4v-550.4zM883.2 441.6h-377.6c-38.4 0-76.8-32-76.8-70.4v-364.8c0-38.4 32-70.4 76.8-70.4h377.6c38.4 0 76.8 32 76.8 70.4v364.8c0 38.4-32 70.4-76.8 70.4zM883.2 6.4h-377.6v364.8h377.6v-364.8z"  horiz-adv-x="1024" />

    
    <glyph glyph-name="baocun" unicode="&#59046;" d="M857.6-64h-691.2c-57.6 0-102.4 44.8-102.4 102.4v691.2c0 57.6 44.8 102.4 102.4 102.4h691.2c57.6 0 102.4-44.8 102.4-102.4v-691.2c0-57.6-44.8-102.4-102.4-102.4zM166.4 761.6c-19.2 0-32-12.8-32-32v-691.2c0-19.2 12.8-32 32-32h691.2c19.2 0 32 12.8 32 32v691.2c0 19.2-12.8 32-32 32h-691.2zM294.4 825.6h435.2v-249.6c0-12.8-12.8-25.6-25.6-25.6h-384c-12.8 0-25.6 12.8-25.6 25.6v249.6c6.4 0 0 0 0 0zM665.6 627.2v198.4h-307.2v-198.4c0-6.4 6.4-12.8 12.8-12.8h281.6c6.4 0 12.8 6.4 12.8 12.8zM556.8 646.4c0-12.8 12.8-25.6 25.6-25.6s25.6 12.8 25.6 25.6-12.8 25.6-25.6 25.6c-12.8 6.4-25.6-6.4-25.6-25.6z"  horiz-adv-x="1024" />

    
    <glyph glyph-name="caijiqianduanguanli" unicode="&#59047;" d="M230.4 761.6h556.8c6.4 0 19.2 6.4 19.2 19.2v32c0 12.8-6.4 19.2-19.2 19.2h-556.8c-6.4 0-19.2-6.4-19.2-19.2v-32c6.4-12.8 12.8-19.2 19.2-19.2zM147.2 640h729.6c6.4 0 19.2 6.4 19.2 19.2v32c0 12.8-6.4 19.2-19.2 19.2h-729.6c-6.4 0-19.2-6.4-19.2-19.2v-32c0-12.8 6.4-19.2 19.2-19.2zM928 588.8h-832c-19.2 0-32-12.8-32-32v-588.8c0-19.2 12.8-32 32-32h832c19.2 0 32 12.8 32 32v588.8c0 19.2-12.8 32-32 32zM742.4 166.4c-38.4 0-64 25.6-64 64v12.8l-64 64-108.8-108.8c6.4-12.8 12.8-25.6 12.8-38.4 0-38.4-25.6-64-64-64s-64 25.6-64 64c0 6.4 6.4 12.8 6.4 19.2l-89.6 89.6h-6.4c-38.4 0-64 25.6-64 64s25.6 64 64 64 64-25.6 64-64c0-12.8-6.4-19.2-6.4-25.6l83.2-83.2 108.8 108.8c-6.4 6.4-12.8 25.6-12.8 38.4 0 38.4 25.6 64 64 64s64-25.6 64-64c0-6.4-6.4-12.8-6.4-19.2l64-64c6.4 6.4 12.8 6.4 19.2 6.4 38.4 0 64-25.6 64-64s-25.6-64-64-64z"  horiz-adv-x="1024" />

    
    <glyph glyph-name="peizhi" unicode="&#59048;" d="M166.4 166.4c-19.2 0-32 12.8-32 32v-236.8c0-12.8 12.8-25.6 25.6-25.6h12.8c12.8 0 25.6 12.8 25.6 25.6v236.8c0-19.2-12.8-32-32-32zM172.8 832h-12.8c-12.8 0-25.6-12.8-25.6-25.6v-608c0 19.2 12.8 32 32 32s32-12.8 32-32v608c0 12.8-12.8 25.6-25.6 25.6zM166.4 294.4c-57.6 0-102.4-44.8-102.4-96s44.8-96 102.4-96c57.6 0 102.4 44.8 102.4 96s-44.8 96-102.4 96zM166.4 166.4c-19.2 0-32 12.8-32 32s12.8 32 32 32 32-12.8 32-32-12.8-32-32-32zM512 486.4c-57.6 0-102.4-44.8-102.4-96s44.8-96 102.4-96c57.6 0 102.4 44.8 102.4 96s-44.8 96-102.4 96zM512 352c-19.2 0-32 12.8-32 32s12.8 32 32 32 32-12.8 32-32-12.8-32-32-32zM518.4 832h-12.8c-12.8 0-25.6-12.8-25.6-25.6v-416c0 19.2 12.8 32 32 32s32-12.8 32-32v416c0 12.8-12.8 25.6-25.6 25.6zM512 352c-19.2 0-32 12.8-32 32v-422.4c0-12.8 12.8-25.6 25.6-25.6h12.8c12.8 0 25.6 12.8 25.6 25.6v422.4c0-19.2-12.8-32-32-32zM857.6 672c-57.6 0-102.4-44.8-102.4-96s44.8-96 102.4-96c57.6 0 102.4 44.8 102.4 96s-44.8 96-102.4 96zM857.6 544c-19.2 0-32 12.8-32 32s12.8 32 32 32 32-12.8 32-32-12.8-32-32-32zM857.6 544c-19.2 0-32 12.8-32 32v-614.4c0-12.8 12.8-25.6 25.6-25.6h12.8c12.8 0 25.6 12.8 25.6 25.6v614.4c0-19.2-12.8-32-32-32zM864 832h-12.8c-12.8 0-25.6-12.8-25.6-25.6v-230.4c0 19.2 12.8 32 32 32s32-12.8 32-32v230.4c0 12.8-12.8 25.6-25.6 25.6z"  horiz-adv-x="1024" />

    
    <glyph glyph-name="shuaxin" unicode="&#59049;" d="M940.8 640c-19.2 6.4-32 0-38.4-19.2l-25.6-70.4c-32 64-76.8 121.6-134.4 166.4-185.6 134.4-448 102.4-588.8-83.2-70.4-89.6-96-198.4-83.2-307.2 12.8-108.8 76.8-204.8 166.4-275.2 76.8-57.6 166.4-83.2 249.6-83.2 128 0 256 57.6 339.2 166.4 38.4 51.2 64 102.4 76.8 160 6.4 19.2-6.4 32-25.6 38.4-19.2 6.4-32-6.4-38.4-25.6-12.8-51.2-32-96-64-134.4-115.2-153.6-345.6-185.6-499.2-70.4-76.8 57.6-128 140.8-140.8 230.4-12.8 89.6 12.8 185.6 70.4 262.4 115.2 153.6 345.6 185.6 499.2 70.4 57.6-44.8 102.4-102.4 121.6-166.4l-108.8 44.8c-19.2 6.4-32 0-44.8-19.2-6.4-19.2 0-32 19.2-38.4l160-64H870.4c12.8 0 25.6 6.4 32 19.2l57.6 160c6.4 12.8 0 32-19.2 38.4z"  horiz-adv-x="1024" />

    
    <glyph glyph-name="xiangyouzhankai" unicode="&#59051;" d="M729.6 473.6v-166.4c0-32 32-51.2 64-38.4l147.2 83.2c25.6 12.8 25.6 57.6 0 70.4l-147.2 83.2c-25.6 19.2-64 0-64-32zM128 601.6h768c32 0 64 32 64 64s-32 64-64 64h-768c-32 0-64-32-64-64s32-64 64-64zM128 320h428.8c32 0 64 32 64 64s-32 64-64 64h-428.8c-32 0-64-32-64-64s32-64 64-64zM128 38.39999999999998h768c32 0 64 32 64 64s-32 64-64 64h-768c-32 0-64-32-64-64 0-38.4 32-64 64-64z"  horiz-adv-x="1024" />

    
    <glyph glyph-name="xiangzuoshouqi" unicode="&#59052;" d="M230.4 505.6l-147.2-83.2c-25.6-12.8-25.6-57.6 0-70.4l147.2-83.2c25.6-12.8 64 6.4 64 38.4v166.4c0 32-38.4 51.2-64 32zM896 601.6h-768c-32 0-64 32-64 64s32 64 64 64h768c32 0 64-32 64-64s-32-64-64-64zM896 320h-428.8c-32 0-64 32-64 64s32 64 64 64h428.8c32 0 64-32 64-64s-32-64-64-64zM896 38.39999999999998h-768c-32 0-64 32-64 64s32 64 64 64h768c32 0 64-32 64-64 0-38.4-32-64-64-64z"  horiz-adv-x="1024" />

    
    <glyph glyph-name="houduancaijijiankong" unicode="&#59056;" d="M473.6 134.4h64v-76.8h-64v76.8zM640 64h-268.8c-19.2 0-32-12.8-32-32s12.8-32 32-32h268.8c19.2 0 32 12.8 32 32s-12.8 32-32 32zM844.8 768h-665.6c-64 0-115.2-51.2-115.2-115.2v-409.6c0-64 51.2-115.2 115.2-115.2h665.6c64 0 115.2 51.2 115.2 115.2v409.6c0 64-51.2 115.2-115.2 115.2zM736 352c-38.4 0-64 25.6-64 64v12.8l-64 64-108.8-108.8c6.4-12.8 12.8-25.6 12.8-38.4 0-38.4-25.6-64-64-64s-64 25.6-64 64c0 6.4 6.4 12.8 6.4 19.2l-89.6 89.6h-6.4c-38.4 0-64 25.6-64 64s25.6 64 64 64 64-25.6 64-64c0-12.8-6.4-19.2-6.4-25.6l83.2-83.2 108.8 108.8c-6.4 6.4-12.8 25.6-12.8 38.4 0 38.4 25.6 64 64 64s64-25.6 64-64c0-6.4-6.4-12.8-6.4-19.2l64-64c6.4 6.4 12.8 6.4 19.2 6.4 38.4 0 64-32 64-64 0-38.4-25.6-64-64-64z"  horiz-adv-x="1024" />

    
    <glyph glyph-name="jiangxu" unicode="&#59055;" d="M723.2 326.4l-211.2-230.4-211.2 230.4-44.8-51.2 256-281.6 256 281.6-44.8 51.2z"  horiz-adv-x="1024" />

    
    <glyph glyph-name="morenpaixu" unicode="&#59057;" d="M768 486.4l-256 281.6-256-281.6 44.8-51.2 211.2 230.4 211.2-230.4 44.8 51.2zM723.2 326.4l-211.2-230.4-211.2 230.4-44.8-51.2 256-281.6 256 281.6-44.8 51.2z"  horiz-adv-x="1024" />

    
    <glyph glyph-name="shengxu" unicode="&#59058;" d="M768 486.4l-256 281.6-256-281.6 44.8-51.2 211.2 230.4 211.2-230.4 44.8 51.2z"  horiz-adv-x="1024" />

    
    <glyph glyph-name="shangchuanwenjian" unicode="&#59059;" d="M480 256V672L364.8 556.8c-12.8-12.8-25.6-12.8-38.4 0s-12.8 25.6 0 38.4l160 160c6.4 6.4 12.8 12.8 25.6 12.8 6.4 0 19.2-6.4 25.6-12.8l160-160c12.8-12.8 12.8-25.6 0-38.4s-25.6-12.8-38.4 0L544 672V256c0-12.8-12.8-25.6-32-25.6s-32 12.8-32 25.6z m448-249.6h-832c-19.2 0-32 12.8-32 32s12.8 32 32 32h832c19.2 0 32-12.8 32-32s-12.8-32-32-32zM96 6.399999999999977c-19.2 6.4-32 12.8-32 32V268.79999999999995c0 19.2 12.8 32 32 32s32-12.8 32-32v-230.4c0-19.2-12.8-32-32-32z m832 0c-19.2 0-32 12.8-32 32V268.79999999999995c0 19.2 12.8 32 32 32s32-12.8 32-32v-230.4c0-19.2-12.8-32-32-32z"  horiz-adv-x="1024" />

    
    <glyph glyph-name="shangchuantupian" unicode="&#59060;" d="M128 640v-512c0-32 32-64 64-64h640c38.4 0 64 25.6 64 64v512c0 32-32 64-64 64h-640c-38.4 0-64-25.6-64-64zM64 640c0 70.4 57.6 128 128 128h640c70.4 0 128-57.6 128-128v-512c0-70.4-57.6-128-128-128h-640c-70.4 0-128 57.6-128 128v512zM96 153.6l185.6 236.8c25.6 25.6 57.6 25.6 76.8 0l185.6-307.2 179.2 249.6c25.6 25.6 64 25.6 83.2-6.4l121.6-172.8-32-108.8-729.6-19.2c-6.4-6.4-70.4 128-70.4 128zM627.2 595.2c32 0 57.6-25.6 57.6-57.6s-25.6-57.6-57.6-57.6-57.6 25.6-57.6 57.6 25.6 57.6 57.6 57.6z"  horiz-adv-x="1024" />

    
    <glyph glyph-name="xiangshang" unicode="&#59066;" d="M947.2 140.79999999999995c-19.2-19.2-51.2-19.2-70.4 0l-364.8 371.2-364.8-371.2c-19.2-19.2-51.2-19.2-70.4 0s-19.2 51.2 0 70.4l396.8 409.6c19.2 19.2 51.2 19.2 70.4 0l396.8-409.6c25.6-12.8 25.6-51.2 6.4-70.4z"  horiz-adv-x="1024" />

    
    <glyph glyph-name="xiangxia" unicode="&#59067;" d="M947.2 556.8l-396.8-409.6c-19.2-19.2-51.2-19.2-70.4 0l-396.8 409.6c-19.2 19.2-19.2 51.2 0 70.4 19.2 19.2 51.2 19.2 70.4 0l364.8-371.2 364.8 371.2c19.2 19.2 51.2 19.2 70.4 0 12.8-12.8 12.8-51.2-6.4-70.4z"  horiz-adv-x="1024" />

    
    <glyph glyph-name="xiaopiaochuli" unicode="&#59068;" d="M915.2 768h-806.4c-25.6 0-44.8-25.6-44.8-51.2v-236.8c12.8 6.4 19.2 6.4 25.6 6.4 51.2 0 89.6-44.8 89.6-102.4s-38.4-102.4-89.6-102.4c-12.8 0-19.2 6.4-25.6 6.4v-236.8c0-25.6 19.2-51.2 44.8-51.2h806.4c25.6 0 44.8 25.6 44.8 51.2v236.8c-6.4-6.4-12.8-6.4-19.2-6.4-51.2 0-89.6 44.8-89.6 102.4s38.4 102.4 89.6 102.4c6.4 0 12.8-6.4 19.2-6.4v236.8c0 25.6-19.2 51.2-44.8 51.2z m-102.4-249.6l-313.6-320c-6.4-6.4-6.4-6.4-12.8-6.4-12.8-12.8-25.6-6.4-38.4 6.4l-179.2 179.2c-12.8 12.8-12.8 32 0 44.8 12.8 12.8 32 12.8 44.8 0l160-160 294.4 300.8c12.8 12.8 32 12.8 44.8 0 12.8-12.8 12.8-38.4 0-44.8z"  horiz-adv-x="1024" />

    
    <glyph glyph-name="xiaopiaoshujujiagongshibaibishu" unicode="&#59069;" d="M960 531.2v-51.2c-6.4 0-12.8 6.4-19.2 6.4-51.2 0-89.6-44.8-89.6-102.4s38.4-102.4 89.6-102.4c6.4 0 12.8 0 19.2 6.4v-236.8c0-25.6-19.2-51.2-44.8-51.2h-806.4c-25.6 0-44.8 25.6-44.8 51.2v236.8c6.4 0 12.8-6.4 25.6-6.4 51.2 0 89.6 44.8 89.6 102.4s-38.4 102.4-89.6 102.4c-6.4 0-12.8 0-25.6-6.4v236.8c0 25.6 19.2 51.2 44.8 51.2h806.4c25.6 0 44.8-25.6 44.8-51.2v-185.6z m-44.8 0v179.2h-806.4v-179.2c64-12.8 115.2-76.8 115.2-153.6s-51.2-140.8-115.2-153.6v-166.4h806.4v166.4c-64 12.8-115.2 76.8-115.2 153.6s51.2 140.8 115.2 153.6zM761.6 441.6c0 12.8-12.8 25.6-25.6 25.6-32 0-64 25.6-64 64 0 12.8 6.4 25.6 6.4 25.6 6.4 12.8 0 32-12.8 38.4l-64 32h-12.8c-12.8 0-19.2-6.4-25.6-12.8-6.4-6.4-32-25.6-51.2-25.6s-44.8 19.2-51.2 25.6c-6.4 6.4-12.8 12.8-25.6 12.8h-12.8l-64-38.4c-12.8-6.4-19.2-25.6-12.8-38.4 0 0 6.4-12.8 6.4-25.6 0-32-25.6-64-64-64-12.8 0-19.2-12.8-25.6-25.6 0 0-6.4-25.6-6.4-51.2s6.4-51.2 6.4-51.2c0-12.8 12.8-25.6 25.6-25.6 32 0 64-25.6 64-64 0-12.8-6.4-25.6-6.4-25.6-6.4-12.8 0-32 12.8-38.4l64-32h12.8c12.8 0 19.2 6.4 25.6 12.8 6.4 6.4 32 32 51.2 32s44.8-19.2 51.2-32c6.4-6.4 12.8-12.8 25.6-12.8h12.8l64 32c12.8 6.4 19.2 25.6 12.8 38.4 0 0-6.4 12.8-6.4 25.6 0 32 25.6 64 64 64 12.8 0 19.2 12.8 25.6 25.6 0 0 6.4 25.6 6.4 51.2 0 32-6.4 57.6-6.4 57.6z m-326.4-262.4l-51.2 32c0 6.4 6.4 19.2 6.4 32 0 51.2-38.4 89.6-89.6 96 0 6.4-6.4 25.6-6.4 38.4s0 32 6.4 38.4c51.2 6.4 89.6 44.8 89.6 96 0 12.8-6.4 25.6-6.4 32l57.6 32 19.2-19.2c19.2-12.8 44.8-19.2 51.2-19.2 19.2 0 32 6.4 51.2 19.2 12.8 6.4 19.2 12.8 19.2 19.2l57.6-32c0-6.4-6.4-19.2-6.4-32 0-51.2 38.4-89.6 89.6-96 0-6.4 6.4-25.6 6.4-38.4s0-32-6.4-38.4c-51.2-6.4-89.6-44.8-89.6-96 0-12.8 6.4-25.6 6.4-32l-57.6-32-19.2 19.2c-19.2 12.8-38.4 19.2-51.2 19.2-19.2 0-32-6.4-51.2-19.2-12.8 0-12.8 0-25.6-19.2zM601.6 396.8c0 51.2-38.4 89.6-89.6 89.6s-89.6-38.4-89.6-89.6c0-51.2 38.4-89.6 89.6-89.6s89.6 38.4 89.6 89.6z m-89.6 51.2c32 0 51.2-25.6 51.2-51.2 0-32-25.6-51.2-51.2-51.2-32 0-51.2 25.6-51.2 51.2s25.6 51.2 51.2 51.2z"  horiz-adv-x="1024" />

    
    <glyph glyph-name="xiaopiaoshibieshibaibishu" unicode="&#59070;" d="M960 531.2v-51.2c-6.4 0-12.8 6.4-19.2 6.4-51.2 0-89.6-44.8-89.6-102.4s38.4-102.4 89.6-102.4c6.4 0 12.8 0 19.2 6.4v-236.8c0-25.6-19.2-51.2-44.8-51.2h-806.4c-25.6 0-44.8 25.6-44.8 51.2v236.8c6.4 0 12.8-6.4 25.6-6.4 51.2 0 89.6 44.8 89.6 102.4s-38.4 102.4-89.6 102.4c-6.4 0-12.8 0-25.6-6.4v236.8c0 25.6 19.2 51.2 44.8 51.2h806.4c25.6 0 44.8-25.6 44.8-51.2v-185.6z m-44.8 0v179.2h-806.4v-179.2c64-12.8 115.2-76.8 115.2-153.6s-51.2-140.8-115.2-153.6v-166.4h806.4v166.4c-64 12.8-115.2 76.8-115.2 153.6s51.2 140.8 115.2 153.6zM748.8 300.8c0 6.4 0 12.8-6.4 25.6-12.8 6.4-25.6 6.4-32-12.8-32-83.2-108.8-140.8-198.4-140.8s-166.4 57.6-198.4 140.8c-6.4 12.8-12.8 19.2-25.6 12.8-6.4 0-12.8-12.8-12.8-25.6 38.4-96 128-166.4 236.8-166.4s198.4 64 236.8 166.4z m0 166.4c-38.4 96-128 166.4-236.8 166.4s-198.4-70.4-236.8-166.4c-6.4-12.8 0-25.6 12.8-25.6 12.8-6.4 25.6 0 25.6 12.8 32 83.2 108.8 140.8 198.4 140.8s166.4-57.6 198.4-140.8c6.4-12.8 19.2-19.2 32-12.8 6.4 6.4 6.4 12.8 6.4 25.6z m-480-108.8h480c6.4 0 12.8 6.4 12.8 19.2 0 12.8-6.4 19.2-12.8 19.2h-480c-6.4 0-12.8-6.4-12.8-19.2 0-12.8 6.4-19.2 12.8-19.2z"  horiz-adv-x="1024" />

    
    <glyph glyph-name="yichangxiaopiaoshu" unicode="&#59072;" d="M960 531.2v-51.2c-6.4 0-12.8 6.4-19.2 6.4-51.2 0-89.6-44.8-89.6-102.4s38.4-102.4 89.6-102.4c6.4 0 12.8 0 19.2 6.4v-236.8c0-25.6-19.2-51.2-44.8-51.2h-806.4c-25.6 0-44.8 25.6-44.8 51.2v236.8c6.4 0 12.8-6.4 25.6-6.4 51.2 0 89.6 44.8 89.6 102.4s-38.4 102.4-89.6 102.4c-6.4 0-12.8 0-25.6-6.4v236.8c0 25.6 19.2 51.2 44.8 51.2h806.4c25.6 0 44.8-25.6 44.8-51.2v-185.6z m-44.8 0v179.2h-806.4v-179.2c64-12.8 115.2-76.8 115.2-153.6s-51.2-140.8-115.2-153.6v-166.4h806.4v166.4c-64 12.8-115.2 76.8-115.2 153.6s51.2 140.8 115.2 153.6zM512 313.6c-19.2 0-32 12.8-32 32v198.4c0 19.2 12.8 32 32 32s32-12.8 32-32v-198.4c0-12.8-12.8-32-32-32zM480 224c0-19.2 12.8-32 32-32s32 12.8 32 32-12.8 32-32 32-32-19.2-32-32z"  horiz-adv-x="1024" />

    
    <glyph glyph-name="xiaopiaozongshu" unicode="&#59073;" d="M960 531.2v-51.2c-6.4 0-12.8 6.4-19.2 6.4-51.2 0-89.6-44.8-89.6-102.4s38.4-102.4 89.6-102.4c6.4 0 12.8 0 19.2 6.4v-236.8c0-25.6-19.2-51.2-44.8-51.2h-806.4c-25.6 0-44.8 25.6-44.8 51.2v236.8c6.4 0 12.8-6.4 25.6-6.4 51.2 0 89.6 44.8 89.6 102.4s-38.4 102.4-89.6 102.4c-6.4 0-12.8 0-25.6-6.4v236.8c0 25.6 19.2 51.2 44.8 51.2h806.4c25.6 0 44.8-25.6 44.8-51.2v-185.6z m-44.8 0v179.2h-806.4v-179.2c64-12.8 115.2-76.8 115.2-153.6s-51.2-140.8-115.2-153.6v-166.4h806.4v166.4c-64 12.8-115.2 76.8-115.2 153.6s51.2 140.8 115.2 153.6z m-217.6-281.6h-377.6c-6.4 0-12.8 6.4-12.8 12.8v25.6c0 6.4 6.4 12.8 12.8 12.8h377.6c6.4 0 12.8-6.4 12.8-12.8v-25.6c0-6.4-6.4-12.8-12.8-12.8z m0 204.8h-377.6c-6.4 0-12.8 6.4-12.8 12.8v25.6c0 6.4 6.4 12.8 12.8 12.8h377.6c6.4 0 12.8-6.4 12.8-12.8v-25.6c0-6.4-6.4-12.8-12.8-12.8z"  horiz-adv-x="1024" />

    
    <glyph glyph-name="huiyuan" unicode="&#59074;" d="M64 768h256v-64h-256v64z m64-57.6h192V0h-192v710.4z m832 57.6l-640-768-185.6 179.2 505.6 588.8h320z"  horiz-adv-x="1024" />

    
    <glyph glyph-name="xiangzuo" unicode="&#59075;" d="M684.8-51.200000000000045l-409.6 396.8c-19.2 19.2-19.2 51.2 0 70.4l409.6 396.8c19.2 19.2 51.2 19.2 70.4 0 19.2-19.2 19.2-51.2 0-70.4l-371.2-364.8 371.2-364.8c19.2-19.2 19.2-51.2 0-70.4-12.8-12.8-51.2-12.8-70.4 6.4z"  horiz-adv-x="1024" />

    
    <glyph glyph-name="xiangyou" unicode="&#59077;" d="M339.2 819.2l409.6-396.8c19.2-19.2 19.2-51.2 0-70.4l-409.6-396.8c-19.2-19.2-51.2-19.2-70.4 0-19.2 19.2-19.2 51.2 0 70.4l371.2 364.8-371.2 364.8c-19.2 19.2-19.2 51.2 0 70.4 12.8 12.8 51.2 12.8 70.4-6.4z"  horiz-adv-x="1024" />

    
    <glyph glyph-name="zuofei" unicode="&#59078;" d="M819.2 832h-614.4c-44.8 0-76.8-32-76.8-76.8v-742.4c0-44.8 32-76.8 76.8-76.8h281.6c25.6 0 38.4 12.8 38.4 32s-12.8 32-38.4 32h-262.4c-19.2 0-32 12.8-32 32v704c0 19.2 12.8 32 32 32h569.6c19.2 0 32-12.8 32-32v-396.8c0-19.2 12.8-38.4 38.4-38.4s32 19.2 32 38.4v416c0 44.8-32 76.8-76.8 76.8zM800 76.8l83.2 83.2c12.8 12.8 12.8 32 0 51.2-12.8 12.8-32 12.8-51.2 0l-83.2-83.2-83.2 83.2c-12.8 12.8-32 12.8-51.2 0-12.8-12.8-12.8-32 0-51.2l83.2-83.2-83.2-83.2c-12.8-12.8-12.8-32 0-51.2 12.8-12.8 32-12.8 51.2 0l83.2 83.2 83.2-83.2c12.8-12.8 32-12.8 51.2 0 12.8 12.8 12.8 32 0 51.2l-83.2 83.2z"  horiz-adv-x="1024" />

    
    <glyph glyph-name="mimatianchong" unicode="&#59079;" d="M761.6 499.2h-25.6V608c0 128-89.6 230.4-224 230.4s-224-102.4-224-230.4v-108.8h-25.6c-64 0-108.8-51.2-108.8-115.2v-339.2c0-64 51.2-115.2 108.8-115.2h499.2c64 0 108.8 51.2 108.8 115.2V384c6.4 64-44.8 115.2-108.8 115.2z m-230.4-275.2v-89.6c0-12.8-12.8-25.6-25.6-25.6s-25.6 12.8-25.6 25.6V224c-19.2 12.8-32 32-32 51.2 0 32 25.6 57.6 57.6 57.6s64-25.6 64-57.6c0-19.2-19.2-44.8-38.4-51.2z m147.2 275.2h-332.8V608c0 96 64 172.8 166.4 172.8s166.4-76.8 166.4-172.8v-108.8z"  horiz-adv-x="1024" />

    
    <glyph glyph-name="shouji" unicode="&#59076;" d="M768 832h-512c-32 0-64-32-64-64v-768c0-32 32-64 64-64h512c32 0 64 32 64 64v768c0 32-32 64-64 64z m-256-832c-38.4 0-64 25.6-64 64s25.6 64 64 64 64-25.6 64-64-25.6-64-64-64z m256 256c0-38.4-25.6-64-64-64h-384c-38.4 0-64 25.6-64 64v448c0 32 32 64 64 64h384c38.4 0 64-25.6 64-64v-448z"  horiz-adv-x="1024" />

    
    <glyph glyph-name="jiaoyihuizong" unicode="&#59081;" d="M659.2 396.8c19.2 0 32 12.8 32 32s-12.8 32-32 32h-76.8l76.8 76.8c12.8 12.8 12.8 32 0 44.8-12.8 12.8-32 12.8-44.8 0l-108.8-108.8-108.8 108.8c-12.8 12.8-32 12.8-44.8 0s-12.8-32 0-44.8l76.8-76.8h-70.4c-19.2 0-32-12.8-32-32s12.8-32 32-32h121.6v-57.6h-121.6c-19.2 0-32-12.8-32-32s12.8-32 32-32h121.6v-70.4c0-19.2 12.8-32 32-32s32 12.8 32 32v70.4h121.6c19.2 0 32 12.8 32 32s-12.8 32-32 32h-121.6v57.6h115.2zM128 832h768c32 0 64-32 64-64v-268.8c0-19.2-12.8-32-32-32s-32 12.8-32 32v236.8c0 19.2-12.8 32-32 32h-704c-19.2 0-32-12.8-32-32v-704c0-19.2 12.8-32 32-32h704c19.2 0 32 12.8 32 32v236.8c0 19.2 12.8 32 32 32s32-12.8 32-32v-268.8c0-32-32-64-64-64h-768c-32 0-64 32-64 64v768c0 32 32 64 64 64z"  horiz-adv-x="1024" />

    
    <glyph glyph-name="shujutongxiangmu" unicode="&#59083;" d="M812.8 307.2h-6.4l-70.4 147.2c32 38.4 51.2 89.6 51.2 147.2 0 128-108.8 236.8-236.8 236.8-134.4 0-236.8-108.8-236.8-236.8 0-70.4 32-134.4 83.2-179.2l-70.4-115.2c-19.2 6.4-44.8 12.8-70.4 12.8-102.4 0-192-83.2-192-192 0-102.4 83.2-192 192-192 102.4 0 192 83.2 192 192 0 57.6-25.6 108.8-70.4 147.2l70.4 108.8c32-12.8 64-25.6 102.4-25.6 51.2 0 96 19.2 134.4 44.8l57.6-115.2c-44.8-25.6-76.8-70.4-76.8-128 0-83.2 64-147.2 147.2-147.2 83.2 0 147.2 64 147.2 147.2 0 76.8-64 147.2-147.2 147.2z"  horiz-adv-x="1024" />

    
    <glyph glyph-name="xialasanjiao1-copy-copy" unicode="&#59759;" d="M822.688 648.085v-520.403c0-31.069-23.301-46.604-46.604-46.604h-520.403c-46.604 0-62.137 54.372-31.069 85.443l520.403 520.403c23.301 23.301 77.673 0 77.673-38.836z"  horiz-adv-x="1024" />

    
    <glyph glyph-name="dianpuguanli" unicode="&#59084;" d="M844.8 281.6c-51.2 0-96 32-115.2 76.8-19.2-44.8-64-76.8-108.8-76.8s-96 32-108.8 76.8c-19.2-44.8-64-76.8-115.2-76.8s-96 32-108.8 76.8c-19.2-44.8-64-76.8-115.2-76.8-12.8 0-25.6 0-32 6.4v-249.6c0-25.6 25.6-51.2 51.2-51.2h646.4c25.6 0 51.2 25.6 51.2 51.2v249.6c-19.2-6.4-32-6.4-44.8-6.4z m38.4 390.4h-742.4l-76.8-198.4c0-57.6 51.2-108.8 108.8-108.8 64 0 115.2 51.2 115.2 108.8 0-57.6 51.2-108.8 108.8-108.8 64 0 115.2 51.2 115.2 108.8 0-57.6 51.2-108.8 108.8-108.8 64 0 108.8 51.2 108.8 108.8 0-57.6 51.2-108.8 115.2-108.8s115.2 51.2 115.2 108.8l-76.8 198.4z m-38.4 0z m-652.8 32h640c19.2 0 38.4 19.2 38.4 38.4s-19.2 38.4-38.4 38.4h-640c-19.2 0-38.4-19.2-38.4-38.4s19.2-38.4 38.4-38.4z"  horiz-adv-x="1024" />

    
    <glyph glyph-name="xundianguanli" unicode="&#59085;" d="M294.4 480c-6.4 19.2-9.6 35.2-16 54.4-3.2 6.4-9.6 28.8-16 41.6l-160-38.4v-595.2l236.8 57.6v377.6c-12.8 19.2-19.2 32-25.6 51.2-6.4 12.8-12.8 32-19.2 51.2zM582.4 198.4c-9.6-12.8-19.2-19.2-25.6-25.6l-25.6-19.2c-12.8 12.8-25.6 22.4-44.8 38.4-12.8 9.6-32 32-41.6 44.8-12.8 19.2-35.2 38.4-54.4 57.6l-6.4-307.2 236.8-51.2v300.8l-38.4-38.4zM825.6 569.6c-6.4-19.2-12.8-44.8-19.2-64-6.4-19.2-19.2-44.8-25.6-64-9.6-25.6-22.4-44.8-32-64-9.6-19.2-19.2-38.4-32-51.2l-25.6-25.6v-364.8l236.8 57.6v601.6l-102.4-25.6zM732.8 502.4c6.4 22.4 19.2 70.4 22.4 92.8v25.6c0 32-6.4 57.6-19.2 83.2s-25.6 44.8-44.8 64c-19.2 19.2-38.4 32-64 44.8-25.6 12.8-51.2 19.2-83.2 19.2s-57.6-6.4-83.2-19.2c-25.6-12.8-44.8-25.6-64-44.8-19.2-19.2-32-38.4-44.8-64s-19.2-57.6-19.2-83.2v-12.8c0-32 6.4-64 28.8-112 16-32 32-60.8 48-86.4 16-28.8 38.4-57.6 57.6-83.2 19.2-25.6 44.8-51.2 70.4-76.8 9.6-6.4 6.4-6.4 12.8-6.4s6.4 0 12.8 6.4c25.6 25.6 51.2 51.2 70.4 76.8 19.2 25.6 38.4 57.6 57.6 83.2 19.2 32 32 60.8 41.6 92.8zM540.8 540.8c-38.4 0-70.4 25.6-83.2 57.6 0 3.2-3.2 6.4-3.2 9.6 0 6.4-3.2 12.8-3.2 19.2 0 48 41.6 89.6 89.6 89.6s89.6-41.6 89.6-89.6-38.4-86.4-89.6-86.4z"  horiz-adv-x="1024" />

    
    <glyph glyph-name="tongzhigonggao" unicode="&#59082;" d="M800 96H128c0 76.8 38.4 140.8 96 185.6v204.8c0 121.6 83.2 217.6 192 243.2v6.4c0 51.2 44.8 96 96 96s96-44.8 96-96v-6.4c108.8-25.6 192-121.6 192-243.2v-204.8c57.6-44.8 89.6-108.8 96-185.6h-96z m-281.6-160h-6.4c-64 0-115.2 51.2-121.6 108.8h249.6c-12.8-57.6-64-108.8-121.6-108.8z"  horiz-adv-x="1024" />

    
    <glyph glyph-name="pingguologo" unicode="&#59089;" d="M768 358.4c0-134.4 128-179.2 128-179.2s-19.2-64-64-128c-38.4-57.6-83.2-108.8-147.2-108.8-64 0-83.2 38.4-153.6 38.4-70.4 0-96-32-153.6-38.4-64 0-108.8 57.6-147.2 115.2-83.2 108.8-140.8 313.6-57.6 454.4 38.4 70.4 115.2 108.8 192 115.2 64 0 121.6-38.4 153.6-38.4 38.4 0 108.8 51.2 179.2 38.4 32 0 115.2-12.8 172.8-89.6-6.4-12.8-102.4-70.4-102.4-179.2z m-256 268.8c-6.4 51.2 19.2 102.4 51.2 140.8 32 38.4 89.6 64 140.8 70.4 6.4-51.2-19.2-102.4-51.2-140.8-32-44.8-89.6-76.8-140.8-70.4z"  horiz-adv-x="1024" />

    
    <glyph glyph-name="anzhuologo" unicode="&#59090;" d="M749.53 528.2950000000001c-80.458-0.224-160.914-2.777-241.372-2.777h-239.998c-9.339 0-8.554 5.273-8.554-4.039v-346.422c0-3.252-0.308-6.506-0.084-9.731 2.159-29.643 27.82-53.984 57.546-54.293 11.582-0.112 23.108-0.42 34.662 0.141 6.506 0.307 7.965-1.794 7.909-8.077-0.308-37.102-0.224-74.202-0.141-111.305 0.029-21.565 8.638-38.897 27.343-49.861 37.552-22.043 83.627 4.459 83.879 48.067 0.252 38.028 0.141 76.055-0.056 114.082-0.028 5.273 1.093 7.178 6.814 7.095 20.164-0.365 40.356-0.421 60.518 0.028 6.449 0.141 7.6-2.103 7.572-7.965-0.252-37.551-0.112-75.128-0.112-112.679 0-4.627 0.056-9.283 1.178-13.825 7.151-28.437 32.7-45.57 62.538-41.927 26.529 3.253 46.832 27.091 46.86 55.245 0.056 35.252 0 70.502 0 105.725 0 15.256 0 15.088 15.312 15.312 12.956 0.196 26.08-1.71 38.841 1.178 29.082 6.59 47.226 30.988 47.226 62.874 0.028 115.933-0.028 230.547 0.169 346.478 0 6.422-1.74 6.674-8.049 6.674zM887.983 479.499c0 4.852-0.31 9.732-0.899 14.527-3.422 28.128-28.773 48.683-58.273 47.393-27.68-1.206-51.545-25.072-51.825-52.889-0.393-39.402-0.113-78.803-0.084-118.205 0-39.878-0.308-79.728 0.113-119.607 0.252-23.164 17.752-44.308 40.131-50.197 36.765-9.675 70.781 16.658 70.839 55.077 0.083 74.623 0.026 149.248 0 223.9zM237.003 501.599c-7.937 26.136-38.531 43.243-64.864 39.542-28.354-3.983-52.751-26.867-52.751-55.498v-116.102c0-38.476 4.433-76.951 4.489-115.428 0-3.702 2.243-7.489 3.001-11.048 6.17-29.278 32.588-47.114 63.265-44.002 26.838 2.721 48.151 26.614 48.179 55.218 0.056 77.176 0.308 154.351 0.308 231.528-0.026 5.329-0.055 10.629-1.626 15.789zM745.435 620.644c-20.417 56.06-57.966 97.283-109.678 126.055-4.657 2.608-4.965 4.291-2.44 8.75 11.582 20.556 22.716 41.393 34.13 62.033 2.637 4.74 3.955 9.171-1.487 12.648-4.318 2.778-8.609 0.786-12.059-5.44-11.498-20.891-23.052-41.757-34.268-62.788-2.356-4.433-4.488-5.105-9.114-3.142-32.168 13.63-65.876 20.109-100.707 20.332-36.289 0.252-71.399-6.196-104.856-20.471-4.459-1.907-6.31-0.982-8.526 3.141-9.423 17.781-19.239 35.363-28.943 53.031-2.327 4.263-4.626 8.554-7.15 12.704-2.272 3.758-5.833 4.544-9.675 3.029-3.898-1.514-4.685-4.963-3.955-8.637 0.394-1.991 1.459-3.871 2.44-5.693 10.965-20.136 21.706-40.355 33.091-60.237 3.114-5.44 1.543-7.039-3.141-9.731-72.577-41.925-115.148-103.256-121.037-188.201-0.421-6.113 1.037-8.244 7.74-8.217 80.458 0.252 160.886 0.169 241.344 0.169 80.682 0 161.363 0.083 242.045-0.141 6.646-0.028 8.833 1.459 8.358 8.33-1.486 21.369-4.768 42.291-12.115 62.481zM393.825 640.246c-11.751 0.281-20.669 9.844-20.417 21.874 0.252 11.582 9.311 20.192 21.202 20.08 12.199-0.113 20.863-8.975 20.751-21.23-0.141-11.834-9.675-21.032-21.536-20.724zM621.117 640.246c-11.497 0.141-20.892 9.928-20.752 21.65 0.141 11.442 9.338 20.304 21.06 20.304 12.002 0 21.116-9.088 21.088-21.033 0.028-11.666-9.619-21.061-21.397-20.921z"  horiz-adv-x="1024" />

    
    <glyph glyph-name="biaoqian" unicode="&#59095;" d="M928 364.79999999999995l-441.6 441.6c-12.8 12.8-38.4 25.6-64 25.6h-262.4c-51.2 0-96-44.8-89.6-96v-262.4c0-19.2 6.4-44.8 25.6-64l441.6-441.6c19.2-12.8 44.8-25.6 64-25.6s44.8 6.4 64 25.6l262.4 262.4c38.4 38.4 38.4 96 0 134.4z m-659.2 198.4c-32 0-64 25.6-64 64s32 64 64 64c38.4 0 64-32 64-64s-32-64-64-64z"  horiz-adv-x="1024" />

    
    <glyph glyph-name="bangzhu" unicode="&#59087;" d="M512 832C262.4 832 64 633.6 64 384s198.4-448 448-448 448 198.4 448 448-198.4 448-448 448z m0-672c-25.6 0-51.2 19.2-51.2 51.2 0 25.6 19.2 44.8 51.2 44.8 25.6 0 51.2-19.2 51.2-51.2 0-25.6-25.6-44.8-51.2-44.8z m134.4 281.6c-12.8-12.8-32-38.4-64-64-19.2-12.8-25.6-25.6-32-32-6.4-12.8-6.4-25.6-6.4-44.8H473.6V320c0 25.6 6.4 44.8 12.8 57.6s25.6 32 44.8 51.2c25.6 19.2 32 32 38.4 38.4s12.8 19.2 12.8 32-6.4 25.6-19.2 38.4c-12.8 6.4-25.6 12.8-51.2 12.8-19.2 0-38.4-6.4-51.2-19.2-12.8-12.8-19.2-38.4-25.6-51.2 0-12.8-76.8-19.2-70.4 6.4 6.4 32 19.2 64 44.8 83.2 25.6 25.6 64 32 102.4 32 44.8 0 83.2-12.8 108.8-38.4 25.6-25.6 38.4-51.2 38.4-83.2 0-6.4-6.4-25.6-12.8-38.4z"  horiz-adv-x="1024" />

    
    <glyph glyph-name="xiangshangsanjiao" unicode="&#59088;" d="M541 632.2c-25.4 12.7-57.1 6.3-76.2-12.7L97.1 262.1C52.7 217.70000000000005 59 179.60000000000002 84.4 147.79999999999995c12.7-12.7 31.7-19 57.1-19l737.5 0.4c19 0 38.1 6.3 57.1 19 31.7 25.4 31.7 69.8 0 101.6 0 0-277.7 272.2-369.8 363.4 0 0-9.5 8.1-12.8 10.6-2.9 2.3-12.5 8.4-12.5 8.4z"  horiz-adv-x="1024" />

    
    <glyph glyph-name="shebei" unicode="&#59098;" d="M864-44.8c-102.4-51.2-224 19.2-236.8 128 0 19.2 0 44.8 6.4 64 6.4 12.8 0 12.8-6.4 19.2-108.8 115.2-217.6 224-326.4 332.8-6.4 6.4-12.8 6.4-25.6 6.4-89.6-25.6-192 32-211.2 128 0 32 0 64 12.8 102.4 6.4 0 6.4-6.4 12.8-6.4l96-96c25.6-25.6 57.6-25.6 83.2-6.4 25.6 25.6 19.2 57.6-6.4 83.2-32 32-64 70.4-102.4 102.4 51.2 19.2 102.4 25.6 147.2 0 70.4-38.4 102.4-115.2 83.2-192-6.4-12.8 0-19.2 6.4-25.6l320-320c6.4-6.4 12.8-6.4 25.6-6.4 64 12.8 121.6 0 166.4-51.2 44.8-44.8 57.6-102.4 32-166.4-6.4-12.8-6.4-19.2-19.2-6.4l-96 96c-19.2 19.2-38.4 25.6-64 12.8-19.2-6.4-32-25.6-38.4-44.8 0-19.2 6.4-38.4 19.2-51.2 51.2-32 83.2-64 121.6-102.4zM64 25.6c0 19.2 6.4 38.4 25.6 57.6l268.8 268.8c6.4 6.4 12.8 6.4 19.2 0l102.4-102.4c6.4-6.4 6.4-12.8 0-19.2l-268.8-268.8c-44.8-44.8-108.8-32-134.4 19.2-12.8 12.8-12.8 19.2-12.8 44.8zM633.6 448l-6.4 6.4c-19.2 12.8-32 25.6-44.8 38.4-12.8 6.4-6.4 12.8 0 19.2l96 96c25.6 25.6 51.2 51.2 64 83.2 19.2 51.2 57.6 89.6 108.8 108.8 19.2 12.8 32 32 51.2 32 19.2 0 25.6-25.6 38.4-32 19.2-19.2 19.2-32 6.4-51.2-19.2-25.6-32-57.6-44.8-83.2-6.4-12.8-12.8-19.2-19.2-19.2-76.8-32-140.8-76.8-192-140.8-12.8-19.2-32-32-51.2-51.2l-6.4-6.4z"  horiz-adv-x="1024" />

    
    <glyph glyph-name="xiangzuosanjiao" unicode="&#59101;" d="M256 384l512-448v896l-512-448zM595.2 341.333c-4.267-4.267-10.667-8.533-19.2-8.533-4.267 0-8.533-2.133-12.8-2.133-29.867 0-53.333 23.467-53.333 53.333s23.467 53.333 53.333 53.333c12.8 0 25.6-4.267 34.133-12.8 8.533-6.4 14.933-17.067 17.067-27.733v-10.667c0-19.2-6.4-34.133-19.2-44.8z"  horiz-adv-x="1024" />

    
    <glyph glyph-name="dingwei" unicode="&#59091;" d="M512-64S179.2 307.20000000000005 179.2 492.8C179.2 678.4 326.4 832 512 832c185.6 0 332.8-147.2 332.8-332.8C844.8 313.6 512-64 512-64zM512 620.8c-70.4 0-128-57.6-128-128s57.6-128 128-128 128 57.6 128 128-57.6 128-128 128z"  horiz-adv-x="1024" />

    
    <glyph glyph-name="dianhua" unicode="&#59092;" d="M441.6 313.6c-89.6 89.6-172.8 192-134.4 230.4 64 64 108.8 96 6.4 224-102.4 128-166.4 32-224-25.6-64-64-6.4-307.2 236.8-544 236.8-236.8 480-300.8 544-236.8 57.6 57.6 153.6 128 25.6 230.4s-166.4 51.2-224-6.4c-38.4-44.8-140.8 38.4-230.4 128z"  horiz-adv-x="1024" />

    
    <glyph glyph-name="gengduohuodong" unicode="&#59093;" d="M512 844.8c-249.6 0-448-198.4-448-448s198.4-448 448-448 448 198.4 448 448-198.4 448-448 448zM332.8 345.6c-25.6 0-44.8 19.2-44.8 44.8 0 25.6 19.2 44.8 44.8 44.8 25.6 0 44.8-19.2 44.8-44.8 0-25.6-19.2-44.8-44.8-44.8zM505.6 345.6c-25.6 0-44.8 19.2-44.8 44.8 0 25.6 19.2 44.8 44.8 44.8 25.6 0 44.8-19.2 44.8-44.8 0-25.6-19.2-44.8-44.8-44.8zM684.8 345.6c-25.6 0-44.8 19.2-44.8 44.8 0 25.6 19.2 44.8 44.8 44.8 25.6 0 44.8-19.2 44.8-44.8 0-25.6-19.2-44.8-44.8-44.8z"  horiz-adv-x="1024" />

    
    <glyph glyph-name="xiangji" unicode="&#59094;" d="M512 460.8c-76.8 0-134.4-57.6-134.4-134.4 0-76.8 57.6-134.4 134.4-134.4s134.4 57.6 134.4 134.4c0 70.4-57.6 134.4-134.4 134.4zM838.4 652.8h-102.4l-25.6 64c-12.8 25.6-44.8 51.2-76.8 51.2h-243.2c-32 0-64-25.6-76.8-57.6l-25.6-64h-102.4c-70.4 6.4-121.6-51.2-121.6-115.2v-416c0-64 51.2-115.2 121.6-115.2h659.2c64 0 121.6 51.2 121.6 115.2v416c-6.4 64-57.6 121.6-128 121.6zM512 115.2c-115.2 0-211.2 89.6-211.2 204.8 0 115.2 96 204.8 211.2 204.8 115.2 0 211.2-89.6 211.2-204.8 0-108.8-96-204.8-211.2-204.8z"  horiz-adv-x="1024" />

    
    <glyph glyph-name="danyetuwen" unicode="&#59099;" d="M825.6 832h-627.2c-57.6 0-102.4-57.6-102.4-115.2v-665.6c0-64 44.8-108.8 102.4-108.8h620.8c57.6 0 108.8 51.2 108.8 115.2v665.6c0 57.6-44.8 108.8-102.4 108.8zM793.6 38.4h-563.2c-19.2 0-32 12.8-32 32s12.8 32 32 32h563.2c19.2 0 32-12.8 32-32 0-12.8-19.2-32-32-32zM825.6 243.2c0-19.2-19.2-32-38.4-32h-556.8c-19.2 0-32 12.8-32 32v454.4c0 19.2 12.8 32 32 32h563.2c19.2 0 32-12.8 32-32v-454.4zM390.4 627.2c19.2 0 51.2-38.4 108.8-172.8 12.8-19.2 57.6-102.4 89.6-38.4 12.8 19.2 19.2 64 44.8 70.4 12.8 6.4 57.6-44.8 128-198.4h-492.8c-6.4-6.4 44.8 345.6 121.6 339.2zM652.8 608c0-25.6 25.6-51.2 51.2-51.2s51.2 25.6 51.2 51.2-25.6 51.2-51.2 51.2-51.2-25.6-51.2-51.2z"  horiz-adv-x="1024" />

    
    <glyph glyph-name="duoyetuwen" unicode="&#59100;" d="M768 736c0 51.2-38.4 96-83.2 96h-499.2c-44.8 0-83.2-44.8-83.2-96v-544c0-51.2 38.4-89.6 83.2-89.6v576c0 38.4 25.6 64 64 64 0-6.4 518.4-6.4 518.4-6.4zM844.8 672h-505.6c-44.8 0-83.2-44.8-83.2-96v-544c0-57.6 38.4-96 83.2-96h499.2c44.8 0 89.6 44.8 89.6 96v544c0 51.2-38.4 96-83.2 96zM806.4 44.8h-428.8c-12.8 0-25.6 12.8-25.6 25.6s12.8 25.6 25.6 25.6h428.8c12.8 0 25.6-12.8 25.6-25.6s-12.8-25.6-25.6-25.6zM832 198.4c0-12.8-12.8-25.6-25.6-25.6h-428.8c-12.8 0-25.6 12.8-25.6 25.6v352c0 12.8 12.8 25.6 25.6 25.6h428.8c12.8 0 25.6-12.8 25.6-25.6v-352zM499.2 492.8c12.8 0 38.4-32 83.2-134.4 6.4-12.8 44.8-76.8 70.4-32 6.4 19.2 12.8 51.2 32 57.6 6.4 0 44.8-32 96-153.6h-371.2c-6.4 0 32 268.8 89.6 262.4zM742.4 441.6c-19.2 0-38.4 19.2-38.4 38.4s19.2 38.4 38.4 38.4 38.4-19.2 38.4-38.4-19.2-38.4-38.4-38.4z"  horiz-adv-x="1024" />

    
    <glyph glyph-name="xiazai" unicode="&#59129;" d="M512 768c19.2 0 32-12.8 32-25.6v-416l115.2 115.2c12.8 12.8 25.6 12.8 38.4 0s12.8-25.6 0-38.4l-160-160c-6.4-6.4-19.2-12.8-25.6-12.8-12.8 0-19.2 6.4-25.6 12.8l-160 160c-12.8 12.8-12.8 25.6 0 38.4s25.6 12.8 38.4 0l115.2-115.2v416c0 12.8 12.8 25.6 32 25.6zM928 6.4h-832c-19.2 0-32 12.8-32 32s12.8 32 32 32h832c19.2 0 32-12.8 32-32s-12.8-32-32-32zM96 6.4c-19.2 6.4-32 12.8-32 32v230.4c0 19.2 12.8 32 32 32s32-12.8 32-32v-230.4c0-19.2-12.8-32-32-32zM928 6.4c-19.2 0-32 12.8-32 32v230.4c0 19.2 12.8 32 32 32s32-12.8 32-32v-230.4c0-19.2-12.8-32-32-32z"  horiz-adv-x="1024" />

    
    <glyph glyph-name="duanxinfasongyouhuiquan" unicode="&#59103;" d="M362.667 405.333c-12.8 0-21.333-8.533-21.333-21.333s8.533-21.333 21.333-21.333 21.333 8.533 21.333 21.333-8.533 21.333-21.333 21.333zM853.333 810.667h-682.667c-46.933 0-85.333-38.4-85.333-85.333v-682.667c0-46.933 38.4-85.333 85.333-85.333h682.667c46.933 0 85.333 38.4 85.333 85.333v682.667c0 46.933-38.4 85.333-85.333 85.333zM810.667 234.667c0-23.467-19.2-42.667-42.667-42.667h-384c0 12.8-8.533 21.333-21.333 21.333s-21.333-8.533-21.333-21.333h-85.333c-23.467 0-42.667 19.2-42.667 42.667v106.667c23.467 0 42.667 19.2 42.667 42.667s-19.2 42.667-42.667 42.667v106.667c0 23.467 19.2 42.667 42.667 42.667h85.333c0-12.8 8.533-21.333 21.333-21.333s21.333 8.533 21.333 21.333h384c23.467 0 42.667-19.2 42.667-42.667v-298.667zM362.667 501.333c-12.8 0-21.333-8.533-21.333-21.333s8.533-21.333 21.333-21.333 21.333 8.533 21.333 21.333-8.533 21.333-21.333 21.333zM362.667 309.333c-12.8 0-21.333-8.533-21.333-21.333s8.533-21.333 21.333-21.333 21.333 8.533 21.333 21.333-8.533 21.333-21.333 21.333zM697.6 490.667h-200.533c-14.933 0-27.733-12.8-27.733-27.733v-119.467c4.267-12.8 14.933-23.467 27.733-23.467h81.067l2.133-40.533c2.133-2.133 4.267-2.133 6.4-2.133s4.267 0 6.4 2.133l44.8 40.533h59.733c14.933 0 27.733 12.8 27.733 27.733v115.2c0 14.933-12.8 27.733-27.733 27.733zM531.2 392.533c-12.8 0-21.333 8.533-21.333 21.333s8.533 21.333 21.333 21.333 21.333-8.533 21.333-21.333c0-10.667-8.533-21.333-21.333-21.333zM595.2 392.533c-12.8 0-21.333 8.533-21.333 21.333s8.533 21.333 21.333 21.333 21.333-8.533 21.333-21.333c0-10.667-8.533-21.333-21.333-21.333zM659.2 392.533c-12.8 0-21.333 8.533-21.333 21.333s8.533 21.333 21.333 21.333 21.333-8.533 21.333-21.333c0-10.667-8.533-21.333-21.333-21.333z"  horiz-adv-x="1024" />

    
    <glyph glyph-name="tongguoguangchangtuiguangcuxiaohuodong" unicode="&#59105;" d="M627.2 450.133h-104.533c-6.4 0-10.667 4.267-10.667 10.667v81.067c0 12.8-23.467 17.067-29.867 4.267l-117.333-202.667c-4.267-6.4 2.133-21.333 10.667-21.333h106.667c8.533 0 8.533-6.4 8.533-12.8v-83.2c0-12.8 21.333-17.067 25.6-6.4l119.467 200.533c6.4 8.533 2.133 29.867-8.533 29.867zM853.333 810.667h-682.667c-46.933 0-85.333-38.4-85.333-85.333v-682.667c0-46.933 38.4-85.333 85.333-85.333h682.667c46.933 0 85.333 38.4 85.333 85.333v682.667c0 46.933-38.4 85.333-85.333 85.333zM806.4 373.333l-78.933-78.933v-110.933c0-8.533-6.4-14.933-14.933-14.933h-110.933l-78.933-78.933c-6.4-6.4-14.933-6.4-21.333 0l-78.933 78.933h-110.933c-8.533 0-14.933 6.4-14.933 14.933v110.933l-78.933 78.933c-6.4 6.4-6.4 14.933 0 21.333l78.933 78.933v110.933c0 8.533 6.4 14.933 14.933 14.933h110.933l78.933 78.933c6.4 6.4 19.2 6.4 25.6 0l74.667-78.933h110.933c8.533 0 14.933-6.4 14.933-14.933v-106.667l78.933-78.933c6.4-6.4 6.4-19.2 0-25.6z"  horiz-adv-x="1024" />

    
    <glyph glyph-name="koubeipingtaidanpinquan" unicode="&#59106;" d="M648.533 420.267l-147.2 149.333c-6.4 4.267-14.933 8.533-23.467 6.4l-83.2-14.933c-10.667-2.133-17.067-10.667-19.2-19.2l-12.8-81.067c0-8.533 2.133-17.067 4.267-19.2l149.333-149.333c4.267-4.267 12.8-8.533 19.2-10.667h14.933c6.4 2.133 12.8 6.4 17.067 10.667l81.067 81.067c4.267 4.267 8.533 10.667 10.667 17.067 2.133 6.4 2.133 12.8 0 14.933-2.133 4.267-6.4 10.667-10.667 14.933zM465.067 473.6c-10.667-10.667-29.867-10.667-40.533 0s-10.667 27.733 0 40.533c6.4 6.4 12.8 8.533 21.333 8.533 6.4 0 12.8-4.267 19.2-8.533 10.667-10.667 10.667-29.867 0-40.533zM853.333 810.667h-682.667c-46.933 0-85.333-38.4-85.333-85.333v-682.667c0-46.933 38.4-85.333 85.333-85.333h682.667c46.933 0 85.333 38.4 85.333 85.333v682.667c0 46.933-38.4 85.333-85.333 85.333zM810.667 469.333c0-211.2-202.667-356.267-390.4-341.333-6.4 0-10.667 4.267-10.667 12.8v46.933c-113.067 42.667-194.133 155.733-194.133 281.6v121.6c0 27.733 21.333 49.067 49.067 49.067h497.067c27.733 0 49.067-21.333 49.067-49.067v-121.6z"  horiz-adv-x="1024" />

    
    <glyph glyph-name="koubeipingtaixinkesongquan" unicode="&#59107;" d="M507.733 448c36.267 0 64 29.867 64 64s-27.733 64-64 64-64-29.867-64-64 27.733-64 64-64zM512 426.667c-83.2 0-149.333-66.133-149.333-149.333h298.667c0 83.2-66.133 149.333-149.333 149.333zM853.333 810.667h-682.667c-46.933 0-85.333-38.4-85.333-85.333v-682.667c0-46.933 38.4-85.333 85.333-85.333h682.667c46.933 0 85.333 38.4 85.333 85.333v682.667c0 46.933-38.4 85.333-85.333 85.333zM810.667 469.333c0-211.2-202.667-354.133-390.4-341.333-6.4 0-10.667 4.267-10.667 12.8v46.933c-113.067 42.667-194.133 155.733-194.133 281.6v121.6c0 27.733 21.333 49.067 49.067 49.067h497.067c27.733 0 49.067-21.333 49.067-49.067v-121.6z"  horiz-adv-x="1024" />

    
    <glyph glyph-name="koubeipingtaixiaofeisongquan" unicode="&#59108;" d="M853.333 810.667h-682.667c-46.933 0-85.333-38.4-85.333-85.333v-682.667c0-46.933 38.4-85.333 85.333-85.333h682.667c46.933 0 85.333 38.4 85.333 85.333v682.667c0 46.933-38.4 85.333-85.333 85.333zM810.667 469.333c0-211.2-202.667-356.267-392.533-339.2-8.533 0-10.667 4.267-10.667 12.8v46.933c-113.067 42.667-194.133 155.733-194.133 279.467v121.6c0 27.733 21.333 49.067 49.067 49.067h497.067c27.733 0 51.2-21.333 51.2-49.067v-121.6zM659.2 360.533c-14.933 6.4-78.933 27.733-78.933 27.733s2.133 6.4 10.667 23.467c8.533 19.2 23.467 70.4 23.467 70.4h-72.533v27.733h89.6v19.2h-89.6v44.8h-53.333v-46.933h-102.4v-19.2h100.267v-27.733h-72.533v-19.2h153.6c0-6.4-25.6-61.867-25.6-61.867s-32 12.8-51.2 17.067-38.4 14.933-85.333 8.533c-51.2-6.4-70.4-55.467-64-85.333 6.4-29.867 34.133-57.6 72.533-64 38.4-6.4 78.933 17.067 96 27.733 17.067 10.667 42.667 46.933 42.667 46.933s32-14.933 49.067-23.467c17.067-8.533 76.8-44.8 78.933-44.8v66.133c0 4.267-6.4 6.4-21.333 12.8zM420.267 322.133c-61.867 0-61.867 44.8-61.867 55.467s14.933 49.067 64 44.8c44.8-6.4 100.267-34.133 100.267-34.133s-40.533-66.133-102.4-66.133z"  horiz-adv-x="1024" />

    
    <glyph glyph-name="weixinfenxiangtuwen" unicode="&#59109;" d="M861.867 814.933h-682.667c-46.933 0-85.333-38.4-85.333-85.333v-682.667c0-46.933 38.4-85.333 85.333-85.333h682.667c46.933 0 85.333 38.4 85.333 85.333v682.667c0 49.067-38.4 85.333-85.333 85.333zM514.133 157.867c-29.867 0-57.6 4.267-85.333 10.667-17.067 2.133-32-2.133-44.8-8.533-17.067-8.533-34.133-19.2-51.2-27.733-14.933-6.4-23.467-2.133-21.333 14.933 2.133 14.933 6.4 27.733 10.667 40.533 6.4 14.933 0 27.733-10.667 38.4-57.6 44.8-93.867 106.667-93.867 177.067 0 134.4 134.4 243.2 298.667 243.2s298.667-108.8 298.667-243.2-134.4-245.333-300.8-245.333zM642.133 311.467h-256c-12.8 0-21.333-8.533-21.333-21.333s8.533-21.333 21.333-21.333h256c12.8 0 21.333 8.533 21.333 21.333s-8.533 21.333-21.333 21.333zM631.467 567.467c-17.067 0-32-14.933-32-32s14.933-32 32-32 32 14.933 32 32-14.933 32-32 32zM588.8 456.533c-14.933-4.267-19.2-32-27.733-44.8-21.333-36.267-49.067 12.8-55.467 25.6-36.267 85.333-53.333 108.8-66.133 108.8-44.8 4.267-78.933-194.133-72.533-194.133l296.533 2.133c-42.667 96-68.267 104.533-74.667 102.4z"  horiz-adv-x="1024" />

    
    <glyph glyph-name="tongguoguangchangtuiguangtuwen" unicode="&#59110;" d="M629.333 533.333c-17.067 0-32-14.933-32-32s14.933-32 32-32 32 14.933 32 32-14.933 32-32 32zM584.533 428.8c-14.933-4.267-19.2-32-27.733-44.8-21.333-36.267-49.067 12.8-55.467 25.6-36.267 85.333-53.333 108.8-66.133 108.8-44.8 4.267-78.933-198.4-72.533-198.4h298.667c-42.667 96-70.4 110.933-76.8 108.8zM640 277.333h-256c-12.8 0-21.333-8.533-21.333-21.333s8.533-21.333 21.333-21.333h256c12.8 0 21.333 8.533 21.333 21.333s-8.533 21.333-21.333 21.333zM853.333 810.667h-682.667c-46.933 0-85.333-38.4-85.333-85.333v-682.667c0-46.933 38.4-85.333 85.333-85.333h682.667c46.933 0 85.333 38.4 85.333 85.333v682.667c0 46.933-38.4 85.333-85.333 85.333zM806.4 373.333l-78.933-78.933v-110.933c0-8.533-6.4-14.933-14.933-14.933h-110.933l-78.933-78.933c-6.4-6.4-14.933-6.4-21.333 0l-78.933 78.933h-110.933c-8.533 0-14.933 6.4-14.933 14.933v110.933l-78.933 78.933c-6.4 6.4-6.4 19.2 0 25.6l78.933 78.933v106.667c0 8.533 6.4 14.933 14.933 14.933h110.933l74.667 78.933c6.4 6.4 19.2 6.4 25.6 0l78.933-78.933h110.933c8.533 0 14.933-6.4 14.933-14.933v-110.933l78.933-78.933c6.4-6.4 6.4-14.933 0-21.333z"  horiz-adv-x="1024" />

    
    <glyph glyph-name="weixinfenxiangyouhuiquan" unicode="&#59111;" d="M362.667 501.333c-12.8 0-21.333-8.533-21.333-21.333s8.533-21.333 21.333-21.333 21.333 8.533 21.333 21.333-8.533 21.333-21.333 21.333zM362.667 405.333c-12.8 0-21.333-8.533-21.333-21.333s8.533-21.333 21.333-21.333 21.333 8.533 21.333 21.333-8.533 21.333-21.333 21.333zM362.667 309.333c-12.8 0-21.333-8.533-21.333-21.333s8.533-21.333 21.333-21.333 21.333 8.533 21.333 21.333-8.533 21.333-21.333 21.333zM853.333 810.667h-682.667c-46.933 0-85.333-38.4-85.333-85.333v-682.667c0-46.933 38.4-85.333 85.333-85.333h682.667c46.933 0 85.333 38.4 85.333 85.333v682.667c0 46.933-38.4 85.333-85.333 85.333zM810.667 234.667c0-23.467-19.2-42.667-42.667-42.667h-384c0 12.8-8.533 21.333-21.333 21.333s-21.333-8.533-21.333-21.333h-85.333c-23.467 0-42.667 19.2-42.667 42.667v106.667c23.467 0 42.667 19.2 42.667 42.667s-19.2 42.667-42.667 42.667v106.667c0 23.467 19.2 42.667 42.667 42.667h85.333c0-12.8 8.533-21.333 21.333-21.333s21.333 8.533 21.333 21.333h384c23.467 0 42.667-19.2 42.667-42.667v-298.667zM595.2 492.8c-68.267-2.133-125.867-44.8-125.867-100.267 0-27.733 12.8-53.333 36.267-72.533 6.4-4.267 8.533-10.667 6.4-17.067-2.133-6.4-4.267-10.667-4.267-17.067-2.133-6.4 2.133-8.533 8.533-6.4 6.4 4.267 14.933 8.533 21.333 12.8 4.267 2.133 8.533 4.267 12.8 4.267 12.8-4.267 29.867-6.4 44.8-6.4 70.4 0 130.133 46.933 130.133 102.4 2.133 53.333-55.467 100.267-130.133 100.267zM554.667 384c-12.8 0-21.333 8.533-21.333 21.333s8.533 21.333 21.333 21.333 21.333-8.533 21.333-21.333c0-10.667-10.667-21.333-21.333-21.333zM640 384c-12.8 0-21.333 8.533-21.333 21.333s8.533 21.333 21.333 21.333 21.333-8.533 21.333-21.333c0-10.667-10.667-21.333-21.333-21.333z"  horiz-adv-x="1024" />

    
    <glyph glyph-name="xiaopiaodayinyouhuiquan" unicode="&#59112;" d="M704 362.667h-213.333c-12.8 0-21.333-8.533-21.333-21.333s8.533-21.333 21.333-21.333h213.333c12.8 0 21.333 8.533 21.333 21.333s-8.533 21.333-21.333 21.333zM362.667 501.333c-12.8 0-21.333-8.533-21.333-21.333s8.533-21.333 21.333-21.333 21.333 8.533 21.333 21.333-8.533 21.333-21.333 21.333zM362.667 309.333c-12.8 0-21.333-8.533-21.333-21.333s8.533-21.333 21.333-21.333 21.333 8.533 21.333 21.333-8.533 21.333-21.333 21.333zM362.667 405.333c-12.8 0-21.333-8.533-21.333-21.333s8.533-21.333 21.333-21.333 21.333 8.533 21.333 21.333-8.533 21.333-21.333 21.333zM853.333 810.667h-682.667c-46.933 0-85.333-38.4-85.333-85.333v-682.667c0-46.933 38.4-85.333 85.333-85.333h682.667c46.933 0 85.333 38.4 85.333 85.333v682.667c0 46.933-38.4 85.333-85.333 85.333zM810.667 234.667c0-23.467-19.2-42.667-42.667-42.667h-384c0 12.8-8.533 21.333-21.333 21.333s-21.333-8.533-21.333-21.333h-85.333c-23.467 0-42.667 19.2-42.667 42.667v106.667c23.467 0 42.667 19.2 42.667 42.667s-19.2 42.667-42.667 42.667v106.667c0 23.467 19.2 42.667 42.667 42.667h85.333c0-12.8 8.533-21.333 21.333-21.333s21.333 8.533 21.333 21.333h384c23.467 0 42.667-19.2 42.667-42.667v-298.667zM704 448h-213.333c-12.8 0-21.333-8.533-21.333-21.333s8.533-21.333 21.333-21.333h213.333c12.8 0 21.333 8.533 21.333 21.333s-8.533 21.333-21.333 21.333z"  horiz-adv-x="1024" />

    
    <glyph glyph-name="weixincuxiaohuodong" unicode="&#59113;" d="M2.133 232.533h682.667M684.8 232.533h-682.667M853.333 810.667h-682.667c-46.933 0-85.333-38.4-85.333-85.333v-682.667c0-46.933 38.4-85.333 85.333-85.333h682.667c46.933 0 85.333 38.4 85.333 85.333v682.667c0 49.067-38.4 85.333-85.333 85.333zM505.6 153.6c-29.867 0-57.6 4.267-85.333 10.667-17.067 2.133-32-2.133-44.8-8.533-17.067-8.533-34.133-19.2-51.2-27.733-14.933-6.4-23.467-2.133-21.333 14.933 2.133 14.933 6.4 27.733 10.667 40.533 6.4 14.933 0 27.733-10.667 38.4-57.6 44.8-93.867 106.667-93.867 177.067 0 134.4 134.4 243.2 298.667 243.2s298.667-108.8 298.667-243.2-134.4-245.333-300.8-245.333zM637.867 450.133h-104.533c-6.4 0-10.667 4.267-10.667 10.667v81.067c0 12.8-23.467 17.067-29.867 4.267l-117.333-202.667c-4.267-6.4 2.133-21.333 10.667-21.333h106.667c8.533 0 8.533-6.4 8.533-12.8v-83.2c0-12.8 21.333-17.067 25.6-6.4l119.467 200.533c6.4 8.533 2.133 29.867-8.533 29.867z"  horiz-adv-x="1024" />

    
    </font>
</defs>
</svg>
